<svg xmlns="http://www.w3.org/2000/svg" xmlns:xlink="http://www.w3.org/1999/xlink" width="1184" zoomAndPan="magnify" viewBox="0 0 888 380.999991" height="508" preserveAspectRatio="xMidYMid meet" version="1.0"><defs><g/><clipPath id="dc7129297c"><path d="M 330 5 L 461 5 L 461 211 L 330 211 Z M 330 5 " clip-rule="nonzero"/></clipPath><clipPath id="6bf356e443"><path d="M 465.917969 13.089844 L 347.816406 215.964844 L 325.128906 202.757812 L 443.234375 -0.117188 Z M 465.917969 13.089844 " clip-rule="nonzero"/></clipPath><clipPath id="ae891aaa3c"><path d="M 465.917969 13.089844 L 347.816406 215.964844 L 325.128906 202.757812 L 443.234375 -0.117188 Z M 465.917969 13.089844 " clip-rule="nonzero"/></clipPath><clipPath id="70ea3dc1a9"><path d="M 332.257812 191.046875 L 436.417969 12.121094 C 439.972656 6.019531 447.746094 3.574219 453.960938 6.921875 C 460.460938 10.421875 462.726562 18.570312 459.042969 24.898438 L 354.882812 203.824219 C 351.328125 209.925781 343.554688 212.371094 337.339844 209.023438 C 330.839844 205.523438 328.574219 197.375 332.257812 191.046875 Z M 332.257812 191.046875 " clip-rule="nonzero"/></clipPath><linearGradient x1="-8.352831" gradientTransform="matrix(-0.439214, 0.754476, -0.754476, -0.439214, 465.578029, 13.67288)" y1="14.879" x2="275.652791" gradientUnits="userSpaceOnUse" y2="14.879" id="1308a26445"><stop stop-opacity="1" stop-color="rgb(100%, 56.858826%, 30.198669%)" offset="0"/><stop stop-opacity="1" stop-color="rgb(100%, 56.886292%, 30.206299%)" offset="0.03125"/><stop stop-opacity="1" stop-color="rgb(100%, 57.028198%, 30.244446%)" offset="0.0390625"/><stop stop-opacity="1" stop-color="rgb(100%, 57.25708%, 30.307007%)" offset="0.046875"/><stop stop-opacity="1" stop-color="rgb(100%, 57.487488%, 30.369568%)" offset="0.0546875"/><stop stop-opacity="1" stop-color="rgb(100%, 57.717896%, 30.432129%)" offset="0.0625"/><stop stop-opacity="1" stop-color="rgb(100%, 57.948303%, 30.49469%)" offset="0.0703125"/><stop stop-opacity="1" stop-color="rgb(100%, 58.177185%, 30.557251%)" offset="0.078125"/><stop stop-opacity="1" stop-color="rgb(100%, 58.407593%, 30.619812%)" offset="0.0859375"/><stop stop-opacity="1" stop-color="rgb(100%, 58.638%, 30.682373%)" offset="0.09375"/><stop stop-opacity="1" stop-color="rgb(100%, 58.866882%, 30.744934%)" offset="0.101562"/><stop stop-opacity="1" stop-color="rgb(100%, 59.09729%, 30.807495%)" offset="0.109375"/><stop stop-opacity="1" stop-color="rgb(100%, 59.327698%, 30.870056%)" offset="0.117188"/><stop stop-opacity="1" stop-color="rgb(100%, 59.558105%, 30.934143%)" offset="0.125"/><stop stop-opacity="1" stop-color="rgb(100%, 59.786987%, 30.996704%)" offset="0.132812"/><stop stop-opacity="1" stop-color="rgb(100%, 60.017395%, 31.059265%)" offset="0.140625"/><stop stop-opacity="1" stop-color="rgb(100%, 60.247803%, 31.121826%)" offset="0.148437"/><stop stop-opacity="1" stop-color="rgb(100%, 60.476685%, 31.184387%)" offset="0.15625"/><stop stop-opacity="1" stop-color="rgb(100%, 60.707092%, 31.246948%)" offset="0.164062"/><stop stop-opacity="1" stop-color="rgb(100%, 60.9375%, 31.309509%)" offset="0.171875"/><stop stop-opacity="1" stop-color="rgb(100%, 61.167908%, 31.37207%)" offset="0.179687"/><stop stop-opacity="1" stop-color="rgb(100%, 61.39679%, 31.434631%)" offset="0.1875"/><stop stop-opacity="1" stop-color="rgb(100%, 61.627197%, 31.497192%)" offset="0.195312"/><stop stop-opacity="1" stop-color="rgb(100%, 61.857605%, 31.559753%)" offset="0.203125"/><stop stop-opacity="1" stop-color="rgb(100%, 62.086487%, 31.622314%)" offset="0.210937"/><stop stop-opacity="1" stop-color="rgb(100%, 62.316895%, 31.684875%)" offset="0.21875"/><stop stop-opacity="1" stop-color="rgb(100%, 62.547302%, 31.747437%)" offset="0.226562"/><stop stop-opacity="1" stop-color="rgb(100%, 62.77771%, 31.809998%)" offset="0.234375"/><stop stop-opacity="1" stop-color="rgb(100%, 63.006592%, 31.872559%)" offset="0.242187"/><stop stop-opacity="1" stop-color="rgb(100%, 63.237%, 31.93512%)" offset="0.25"/><stop stop-opacity="1" stop-color="rgb(100%, 63.467407%, 31.997681%)" offset="0.257812"/><stop stop-opacity="1" stop-color="rgb(100%, 63.696289%, 32.060242%)" offset="0.265625"/><stop stop-opacity="1" stop-color="rgb(100%, 63.926697%, 32.122803%)" offset="0.273438"/><stop stop-opacity="1" stop-color="rgb(100%, 64.157104%, 32.185364%)" offset="0.28125"/><stop stop-opacity="1" stop-color="rgb(100%, 64.387512%, 32.247925%)" offset="0.289062"/><stop stop-opacity="1" stop-color="rgb(100%, 64.616394%, 32.310486%)" offset="0.296875"/><stop stop-opacity="1" stop-color="rgb(100%, 64.846802%, 32.373047%)" offset="0.304688"/><stop stop-opacity="1" stop-color="rgb(100%, 65.077209%, 32.435608%)" offset="0.3125"/><stop stop-opacity="1" stop-color="rgb(100%, 65.306091%, 32.499695%)" offset="0.320312"/><stop stop-opacity="1" stop-color="rgb(100%, 65.536499%, 32.562256%)" offset="0.328125"/><stop stop-opacity="1" stop-color="rgb(100%, 65.766907%, 32.624817%)" offset="0.335937"/><stop stop-opacity="1" stop-color="rgb(100%, 65.997314%, 32.687378%)" offset="0.34375"/><stop stop-opacity="1" stop-color="rgb(100%, 66.226196%, 32.749939%)" offset="0.351562"/><stop stop-opacity="1" stop-color="rgb(100%, 66.456604%, 32.8125%)" offset="0.359375"/><stop stop-opacity="1" stop-color="rgb(100%, 66.687012%, 32.875061%)" offset="0.367187"/><stop stop-opacity="1" stop-color="rgb(100%, 66.915894%, 32.937622%)" offset="0.375"/><stop stop-opacity="1" stop-color="rgb(100%, 67.146301%, 33.000183%)" offset="0.382812"/><stop stop-opacity="1" stop-color="rgb(100%, 67.376709%, 33.062744%)" offset="0.390625"/><stop stop-opacity="1" stop-color="rgb(100%, 67.607117%, 33.125305%)" offset="0.398437"/><stop stop-opacity="1" stop-color="rgb(100%, 67.835999%, 33.187866%)" offset="0.40625"/><stop stop-opacity="1" stop-color="rgb(100%, 68.066406%, 33.250427%)" offset="0.414062"/><stop stop-opacity="1" stop-color="rgb(100%, 68.296814%, 33.312988%)" offset="0.421875"/><stop stop-opacity="1" stop-color="rgb(100%, 68.525696%, 33.375549%)" offset="0.429688"/><stop stop-opacity="1" stop-color="rgb(100%, 68.756104%, 33.43811%)" offset="0.4375"/><stop stop-opacity="1" stop-color="rgb(100%, 68.986511%, 33.500671%)" offset="0.445312"/><stop stop-opacity="1" stop-color="rgb(100%, 69.216919%, 33.563232%)" offset="0.453125"/><stop stop-opacity="1" stop-color="rgb(100%, 69.445801%, 33.625793%)" offset="0.460937"/><stop stop-opacity="1" stop-color="rgb(100%, 69.676208%, 33.688354%)" offset="0.46875"/><stop stop-opacity="1" stop-color="rgb(100%, 69.906616%, 33.750916%)" offset="0.476562"/><stop stop-opacity="1" stop-color="rgb(100%, 70.135498%, 33.813477%)" offset="0.484375"/><stop stop-opacity="1" stop-color="rgb(100%, 70.365906%, 33.876038%)" offset="0.492187"/><stop stop-opacity="1" stop-color="rgb(100%, 70.596313%, 33.938599%)" offset="0.5"/><stop stop-opacity="1" stop-color="rgb(100%, 70.826721%, 34.00116%)" offset="0.507812"/><stop stop-opacity="1" stop-color="rgb(100%, 71.055603%, 34.065247%)" offset="0.515625"/><stop stop-opacity="1" stop-color="rgb(100%, 71.286011%, 34.127808%)" offset="0.523438"/><stop stop-opacity="1" stop-color="rgb(100%, 71.516418%, 34.190369%)" offset="0.53125"/><stop stop-opacity="1" stop-color="rgb(100%, 71.7453%, 34.25293%)" offset="0.539062"/><stop stop-opacity="1" stop-color="rgb(100%, 71.975708%, 34.315491%)" offset="0.546875"/><stop stop-opacity="1" stop-color="rgb(100%, 72.206116%, 34.378052%)" offset="0.554687"/><stop stop-opacity="1" stop-color="rgb(100%, 72.436523%, 34.440613%)" offset="0.5625"/><stop stop-opacity="1" stop-color="rgb(100%, 72.665405%, 34.503174%)" offset="0.570312"/><stop stop-opacity="1" stop-color="rgb(100%, 72.895813%, 34.565735%)" offset="0.578125"/><stop stop-opacity="1" stop-color="rgb(100%, 73.126221%, 34.628296%)" offset="0.585937"/><stop stop-opacity="1" stop-color="rgb(100%, 73.355103%, 34.690857%)" offset="0.59375"/><stop stop-opacity="1" stop-color="rgb(100%, 73.58551%, 34.753418%)" offset="0.601562"/><stop stop-opacity="1" stop-color="rgb(100%, 73.815918%, 34.815979%)" offset="0.609375"/><stop stop-opacity="1" stop-color="rgb(100%, 74.076843%, 35.003662%)" offset="0.617188"/><stop stop-opacity="1" stop-color="rgb(100%, 74.507141%, 35.877991%)" offset="0.621094"/><stop stop-opacity="1" stop-color="rgb(100%, 74.79248%, 36.595154%)" offset="0.625"/><stop stop-opacity="1" stop-color="rgb(100%, 75.07782%, 37.310791%)" offset="0.628906"/><stop stop-opacity="1" stop-color="rgb(100%, 75.363159%, 38.027954%)" offset="0.632812"/><stop stop-opacity="1" stop-color="rgb(100%, 75.646973%, 38.743591%)" offset="0.636719"/><stop stop-opacity="1" stop-color="rgb(100%, 75.932312%, 39.460754%)" offset="0.640625"/><stop stop-opacity="1" stop-color="rgb(100%, 76.217651%, 40.177917%)" offset="0.644531"/><stop stop-opacity="1" stop-color="rgb(100%, 76.502991%, 40.895081%)" offset="0.648437"/><stop stop-opacity="1" stop-color="rgb(100%, 76.786804%, 41.610718%)" offset="0.652344"/><stop stop-opacity="1" stop-color="rgb(100%, 77.072144%, 42.327881%)" offset="0.65625"/><stop stop-opacity="1" stop-color="rgb(100%, 77.357483%, 43.043518%)" offset="0.660156"/><stop stop-opacity="1" stop-color="rgb(100%, 77.642822%, 43.760681%)" offset="0.664062"/><stop stop-opacity="1" stop-color="rgb(100%, 77.926636%, 44.477844%)" offset="0.667969"/><stop stop-opacity="1" stop-color="rgb(100%, 78.211975%, 45.195007%)" offset="0.671875"/><stop stop-opacity="1" stop-color="rgb(100%, 78.497314%, 45.910645%)" offset="0.675781"/><stop stop-opacity="1" stop-color="rgb(100%, 78.782654%, 46.627808%)" offset="0.679687"/><stop stop-opacity="1" stop-color="rgb(100%, 79.066467%, 47.344971%)" offset="0.683594"/><stop stop-opacity="1" stop-color="rgb(100%, 79.351807%, 48.062134%)" offset="0.6875"/><stop stop-opacity="1" stop-color="rgb(100%, 79.63562%, 48.777771%)" offset="0.691406"/><stop stop-opacity="1" stop-color="rgb(100%, 79.920959%, 49.494934%)" offset="0.695312"/><stop stop-opacity="1" stop-color="rgb(100%, 80.206299%, 50.210571%)" offset="0.699219"/><stop stop-opacity="1" stop-color="rgb(100%, 80.491638%, 50.927734%)" offset="0.703125"/><stop stop-opacity="1" stop-color="rgb(100%, 80.775452%, 51.644897%)" offset="0.707031"/><stop stop-opacity="1" stop-color="rgb(100%, 81.060791%, 52.362061%)" offset="0.710938"/><stop stop-opacity="1" stop-color="rgb(100%, 81.34613%, 53.077698%)" offset="0.714844"/><stop stop-opacity="1" stop-color="rgb(100%, 81.63147%, 53.794861%)" offset="0.71875"/><stop stop-opacity="1" stop-color="rgb(100%, 81.915283%, 54.510498%)" offset="0.722656"/><stop stop-opacity="1" stop-color="rgb(100%, 82.200623%, 55.227661%)" offset="0.726562"/><stop stop-opacity="1" stop-color="rgb(100%, 82.485962%, 55.944824%)" offset="0.730469"/><stop stop-opacity="1" stop-color="rgb(100%, 82.771301%, 56.661987%)" offset="0.734375"/><stop stop-opacity="1" stop-color="rgb(100%, 83.055115%, 57.377625%)" offset="0.738281"/><stop stop-opacity="1" stop-color="rgb(100%, 83.340454%, 58.094788%)" offset="0.742187"/><stop stop-opacity="1" stop-color="rgb(100%, 83.625793%, 58.811951%)" offset="0.746094"/><stop stop-opacity="1" stop-color="rgb(100%, 83.911133%, 59.529114%)" offset="0.75"/><stop stop-opacity="1" stop-color="rgb(100%, 84.194946%, 60.244751%)" offset="0.753906"/><stop stop-opacity="1" stop-color="rgb(100%, 84.480286%, 60.961914%)" offset="0.757812"/><stop stop-opacity="1" stop-color="rgb(100%, 84.764099%, 61.677551%)" offset="0.761719"/><stop stop-opacity="1" stop-color="rgb(100%, 85.049438%, 62.394714%)" offset="0.765625"/><stop stop-opacity="1" stop-color="rgb(100%, 85.334778%, 63.111877%)" offset="0.769531"/><stop stop-opacity="1" stop-color="rgb(100%, 85.620117%, 63.829041%)" offset="0.773438"/><stop stop-opacity="1" stop-color="rgb(100%, 85.903931%, 64.544678%)" offset="0.777344"/><stop stop-opacity="1" stop-color="rgb(100%, 86.18927%, 65.261841%)" offset="0.78125"/><stop stop-opacity="1" stop-color="rgb(100%, 86.474609%, 65.977478%)" offset="0.785156"/><stop stop-opacity="1" stop-color="rgb(100%, 86.759949%, 66.694641%)" offset="0.789062"/><stop stop-opacity="1" stop-color="rgb(100%, 87.043762%, 67.411804%)" offset="0.792969"/><stop stop-opacity="1" stop-color="rgb(100%, 87.329102%, 68.128967%)" offset="0.796875"/><stop stop-opacity="1" stop-color="rgb(100%, 87.614441%, 68.844604%)" offset="0.800781"/><stop stop-opacity="1" stop-color="rgb(100%, 87.89978%, 69.561768%)" offset="0.804687"/><stop stop-opacity="1" stop-color="rgb(100%, 88.183594%, 70.278931%)" offset="0.808594"/><stop stop-opacity="1" stop-color="rgb(100%, 88.468933%, 70.996094%)" offset="0.8125"/><stop stop-opacity="1" stop-color="rgb(100%, 88.754272%, 71.711731%)" offset="0.816406"/><stop stop-opacity="1" stop-color="rgb(100%, 89.039612%, 72.428894%)" offset="0.820312"/><stop stop-opacity="1" stop-color="rgb(100%, 89.323425%, 73.144531%)" offset="0.824219"/><stop stop-opacity="1" stop-color="rgb(100%, 89.608765%, 73.861694%)" offset="0.828125"/><stop stop-opacity="1" stop-color="rgb(100%, 89.892578%, 74.578857%)" offset="0.832031"/><stop stop-opacity="1" stop-color="rgb(100%, 90.177917%, 75.296021%)" offset="0.835937"/><stop stop-opacity="1" stop-color="rgb(100%, 90.463257%, 76.011658%)" offset="0.839844"/><stop stop-opacity="1" stop-color="rgb(100%, 90.748596%, 76.728821%)" offset="0.84375"/><stop stop-opacity="1" stop-color="rgb(100%, 91.03241%, 77.444458%)" offset="0.847656"/><stop stop-opacity="1" stop-color="rgb(100%, 91.317749%, 78.161621%)" offset="0.851562"/><stop stop-opacity="1" stop-color="rgb(100%, 91.603088%, 78.878784%)" offset="0.855469"/><stop stop-opacity="1" stop-color="rgb(100%, 91.888428%, 79.595947%)" offset="0.859375"/><stop stop-opacity="1" stop-color="rgb(100%, 92.172241%, 80.311584%)" offset="0.863281"/><stop stop-opacity="1" stop-color="rgb(100%, 92.457581%, 81.028748%)" offset="0.867188"/><stop stop-opacity="1" stop-color="rgb(100%, 92.74292%, 81.745911%)" offset="0.871094"/><stop stop-opacity="1" stop-color="rgb(100%, 93.028259%, 82.463074%)" offset="0.875"/><stop stop-opacity="1" stop-color="rgb(100%, 93.312073%, 83.178711%)" offset="0.878906"/><stop stop-opacity="1" stop-color="rgb(100%, 93.597412%, 83.895874%)" offset="0.882812"/><stop stop-opacity="1" stop-color="rgb(100%, 93.881226%, 84.611511%)" offset="0.886719"/><stop stop-opacity="1" stop-color="rgb(100%, 94.166565%, 85.328674%)" offset="0.890625"/><stop stop-opacity="1" stop-color="rgb(100%, 94.451904%, 86.045837%)" offset="0.894531"/><stop stop-opacity="1" stop-color="rgb(100%, 94.737244%, 86.763%)" offset="0.898437"/><stop stop-opacity="1" stop-color="rgb(100%, 95.021057%, 87.478638%)" offset="0.902344"/><stop stop-opacity="1" stop-color="rgb(100%, 95.306396%, 88.195801%)" offset="0.90625"/><stop stop-opacity="1" stop-color="rgb(100%, 95.591736%, 88.912964%)" offset="0.910156"/><stop stop-opacity="1" stop-color="rgb(100%, 95.877075%, 89.630127%)" offset="0.914062"/><stop stop-opacity="1" stop-color="rgb(100%, 96.160889%, 90.345764%)" offset="0.917969"/><stop stop-opacity="1" stop-color="rgb(100%, 96.446228%, 91.062927%)" offset="0.921875"/><stop stop-opacity="1" stop-color="rgb(100%, 96.731567%, 91.778564%)" offset="0.925781"/><stop stop-opacity="1" stop-color="rgb(100%, 97.016907%, 92.495728%)" offset="0.929687"/><stop stop-opacity="1" stop-color="rgb(100%, 97.30072%, 93.212891%)" offset="0.933594"/><stop stop-opacity="1" stop-color="rgb(100%, 97.58606%, 93.930054%)" offset="0.9375"/><stop stop-opacity="1" stop-color="rgb(100%, 97.871399%, 94.645691%)" offset="0.941406"/><stop stop-opacity="1" stop-color="rgb(100%, 98.156738%, 95.362854%)" offset="0.945313"/><stop stop-opacity="1" stop-color="rgb(100%, 98.440552%, 96.078491%)" offset="0.949219"/><stop stop-opacity="1" stop-color="rgb(100%, 98.725891%, 96.795654%)" offset="0.953125"/><stop stop-opacity="1" stop-color="rgb(100%, 99.009705%, 97.512817%)" offset="0.957031"/><stop stop-opacity="1" stop-color="rgb(100%, 99.295044%, 98.22998%)" offset="0.960938"/><stop stop-opacity="1" stop-color="rgb(100%, 99.580383%, 98.945618%)" offset="0.964844"/><stop stop-opacity="1" stop-color="rgb(100%, 99.865723%, 99.662781%)" offset="0.96875"/><stop stop-opacity="1" stop-color="rgb(100%, 99.932861%, 99.830627%)" offset="1"/></linearGradient><clipPath id="6a96f881be"><path d="M 430 0 L 571 0 L 571 216 L 430 216 Z M 430 0 " clip-rule="nonzero"/></clipPath><clipPath id="c2f7f3d29b"><path d="M 548.191406 215.855469 L 430.097656 12.976562 L 452.78125 -0.230469 L 570.878906 202.652344 Z M 548.191406 215.855469 " clip-rule="nonzero"/></clipPath><clipPath id="f50fcef005"><path d="M 5 5 L 136 5 L 136 211 L 5 211 Z M 5 5 " clip-rule="nonzero"/></clipPath><clipPath id="3472369900"><path d="M 118.191406 215.855469 L 0.0976562 12.976562 L 22.78125 -0.230469 L 140.878906 202.652344 Z M 118.191406 215.855469 " clip-rule="nonzero"/></clipPath><clipPath id="eedb2088ff"><path d="M 0.160156 13.085938 L 118.257812 215.96875 L 140.945312 202.761719 L 22.847656 -0.117188 Z M 0.160156 13.085938 " clip-rule="nonzero"/></clipPath><clipPath id="a2bfe9da6f"><path d="M 133.816406 191.050781 L 29.660156 12.121094 C 26.109375 6.019531 18.332031 3.574219 12.117188 6.921875 C 5.617188 10.421875 3.351562 18.570312 7.035156 24.898438 L 111.191406 203.828125 C 114.742188 209.929688 122.519531 212.375 128.734375 209.027344 C 135.230469 205.527344 137.5 197.378906 133.816406 191.050781 Z M 133.816406 191.050781 " clip-rule="nonzero"/></clipPath><linearGradient x1="-8.352604" gradientTransform="matrix(0.439188, 0.754491, 0.754491, -0.439188, 0.501271, 13.672133)" y1="14.879" x2="275.652597" gradientUnits="userSpaceOnUse" y2="14.879" id="46b4580d44"><stop stop-opacity="1" stop-color="rgb(36.079407%, 88.238525%, 90.19928%)" offset="0"/><stop stop-opacity="1" stop-color="rgb(36.056519%, 88.212585%, 90.214539%)" offset="0.03125"/><stop stop-opacity="1" stop-color="rgb(35.940552%, 88.07373%, 90.29541%)" offset="0.0390625"/><stop stop-opacity="1" stop-color="rgb(35.752869%, 87.8479%, 90.42511%)" offset="0.046875"/><stop stop-opacity="1" stop-color="rgb(35.56366%, 87.623596%, 90.556335%)" offset="0.0546875"/><stop stop-opacity="1" stop-color="rgb(35.375977%, 87.399292%, 90.686035%)" offset="0.0625"/><stop stop-opacity="1" stop-color="rgb(35.188293%, 87.174988%, 90.817261%)" offset="0.0703125"/><stop stop-opacity="1" stop-color="rgb(34.999084%, 86.949158%, 90.948486%)" offset="0.078125"/><stop stop-opacity="1" stop-color="rgb(34.811401%, 86.724854%, 91.078186%)" offset="0.0859375"/><stop stop-opacity="1" stop-color="rgb(34.623718%, 86.500549%, 91.209412%)" offset="0.09375"/><stop stop-opacity="1" stop-color="rgb(34.434509%, 86.274719%, 91.339111%)" offset="0.101563"/><stop stop-opacity="1" stop-color="rgb(34.246826%, 86.050415%, 91.470337%)" offset="0.109375"/><stop stop-opacity="1" stop-color="rgb(34.059143%, 85.826111%, 91.600037%)" offset="0.117188"/><stop stop-opacity="1" stop-color="rgb(33.87146%, 85.600281%, 91.731262%)" offset="0.125"/><stop stop-opacity="1" stop-color="rgb(33.682251%, 85.375977%, 91.862488%)" offset="0.132813"/><stop stop-opacity="1" stop-color="rgb(33.494568%, 85.151672%, 91.992188%)" offset="0.140625"/><stop stop-opacity="1" stop-color="rgb(33.306885%, 84.925842%, 92.123413%)" offset="0.148438"/><stop stop-opacity="1" stop-color="rgb(33.117676%, 84.701538%, 92.253113%)" offset="0.15625"/><stop stop-opacity="1" stop-color="rgb(32.929993%, 84.477234%, 92.384338%)" offset="0.164062"/><stop stop-opacity="1" stop-color="rgb(32.74231%, 84.25293%, 92.514038%)" offset="0.171875"/><stop stop-opacity="1" stop-color="rgb(32.554626%, 84.0271%, 92.645264%)" offset="0.179688"/><stop stop-opacity="1" stop-color="rgb(32.365417%, 83.802795%, 92.776489%)" offset="0.1875"/><stop stop-opacity="1" stop-color="rgb(32.177734%, 83.578491%, 92.906189%)" offset="0.195313"/><stop stop-opacity="1" stop-color="rgb(31.990051%, 83.352661%, 93.037415%)" offset="0.203125"/><stop stop-opacity="1" stop-color="rgb(31.800842%, 83.128357%, 93.167114%)" offset="0.210938"/><stop stop-opacity="1" stop-color="rgb(31.613159%, 82.904053%, 93.29834%)" offset="0.21875"/><stop stop-opacity="1" stop-color="rgb(31.425476%, 82.678223%, 93.42804%)" offset="0.226563"/><stop stop-opacity="1" stop-color="rgb(31.236267%, 82.453918%, 93.559265%)" offset="0.234375"/><stop stop-opacity="1" stop-color="rgb(31.048584%, 82.229614%, 93.690491%)" offset="0.242188"/><stop stop-opacity="1" stop-color="rgb(30.860901%, 82.003784%, 93.82019%)" offset="0.25"/><stop stop-opacity="1" stop-color="rgb(30.673218%, 81.77948%, 93.951416%)" offset="0.257812"/><stop stop-opacity="1" stop-color="rgb(30.484009%, 81.555176%, 94.081116%)" offset="0.265625"/><stop stop-opacity="1" stop-color="rgb(30.296326%, 81.330872%, 94.212341%)" offset="0.273438"/><stop stop-opacity="1" stop-color="rgb(30.108643%, 81.105042%, 94.342041%)" offset="0.28125"/><stop stop-opacity="1" stop-color="rgb(29.919434%, 80.880737%, 94.473267%)" offset="0.289063"/><stop stop-opacity="1" stop-color="rgb(29.73175%, 80.656433%, 94.604492%)" offset="0.296875"/><stop stop-opacity="1" stop-color="rgb(29.544067%, 80.430603%, 94.734192%)" offset="0.304688"/><stop stop-opacity="1" stop-color="rgb(29.356384%, 80.206299%, 94.865417%)" offset="0.3125"/><stop stop-opacity="1" stop-color="rgb(29.167175%, 79.981995%, 94.995117%)" offset="0.320312"/><stop stop-opacity="1" stop-color="rgb(28.979492%, 79.756165%, 95.126343%)" offset="0.328125"/><stop stop-opacity="1" stop-color="rgb(28.791809%, 79.53186%, 95.256042%)" offset="0.335938"/><stop stop-opacity="1" stop-color="rgb(28.6026%, 79.307556%, 95.387268%)" offset="0.34375"/><stop stop-opacity="1" stop-color="rgb(28.414917%, 79.081726%, 95.518494%)" offset="0.351563"/><stop stop-opacity="1" stop-color="rgb(28.227234%, 78.857422%, 95.648193%)" offset="0.359375"/><stop stop-opacity="1" stop-color="rgb(28.038025%, 78.633118%, 95.779419%)" offset="0.367188"/><stop stop-opacity="1" stop-color="rgb(27.850342%, 78.408813%, 95.909119%)" offset="0.375"/><stop stop-opacity="1" stop-color="rgb(27.662659%, 78.182983%, 96.040344%)" offset="0.382812"/><stop stop-opacity="1" stop-color="rgb(27.474976%, 77.958679%, 96.17157%)" offset="0.390625"/><stop stop-opacity="1" stop-color="rgb(27.285767%, 77.734375%, 96.30127%)" offset="0.398438"/><stop stop-opacity="1" stop-color="rgb(27.098083%, 77.508545%, 96.432495%)" offset="0.40625"/><stop stop-opacity="1" stop-color="rgb(26.9104%, 77.284241%, 96.562195%)" offset="0.414063"/><stop stop-opacity="1" stop-color="rgb(26.721191%, 77.059937%, 96.69342%)" offset="0.421875"/><stop stop-opacity="1" stop-color="rgb(26.533508%, 76.834106%, 96.82312%)" offset="0.429688"/><stop stop-opacity="1" stop-color="rgb(26.345825%, 76.609802%, 96.954346%)" offset="0.4375"/><stop stop-opacity="1" stop-color="rgb(26.156616%, 76.385498%, 97.085571%)" offset="0.445313"/><stop stop-opacity="1" stop-color="rgb(25.968933%, 76.159668%, 97.215271%)" offset="0.453125"/><stop stop-opacity="1" stop-color="rgb(25.78125%, 75.935364%, 97.346497%)" offset="0.460938"/><stop stop-opacity="1" stop-color="rgb(25.593567%, 75.71106%, 97.476196%)" offset="0.46875"/><stop stop-opacity="1" stop-color="rgb(25.404358%, 75.486755%, 97.607422%)" offset="0.476563"/><stop stop-opacity="1" stop-color="rgb(25.216675%, 75.260925%, 97.737122%)" offset="0.484375"/><stop stop-opacity="1" stop-color="rgb(25.028992%, 75.036621%, 97.868347%)" offset="0.492188"/><stop stop-opacity="1" stop-color="rgb(24.839783%, 74.812317%, 97.999573%)" offset="0.5"/><stop stop-opacity="1" stop-color="rgb(24.6521%, 74.586487%, 98.129272%)" offset="0.507813"/><stop stop-opacity="1" stop-color="rgb(24.464417%, 74.362183%, 98.260498%)" offset="0.515625"/><stop stop-opacity="1" stop-color="rgb(24.276733%, 74.137878%, 98.390198%)" offset="0.523438"/><stop stop-opacity="1" stop-color="rgb(24.087524%, 73.912048%, 98.521423%)" offset="0.53125"/><stop stop-opacity="1" stop-color="rgb(23.899841%, 73.687744%, 98.651123%)" offset="0.539063"/><stop stop-opacity="1" stop-color="rgb(23.712158%, 73.46344%, 98.782349%)" offset="0.546875"/><stop stop-opacity="1" stop-color="rgb(23.522949%, 73.23761%, 98.913574%)" offset="0.554688"/><stop stop-opacity="1" stop-color="rgb(23.335266%, 73.013306%, 99.043274%)" offset="0.5625"/><stop stop-opacity="1" stop-color="rgb(23.147583%, 72.789001%, 99.1745%)" offset="0.570313"/><stop stop-opacity="1" stop-color="rgb(22.958374%, 72.563171%, 99.304199%)" offset="0.578125"/><stop stop-opacity="1" stop-color="rgb(22.770691%, 72.338867%, 99.435425%)" offset="0.585938"/><stop stop-opacity="1" stop-color="rgb(22.583008%, 72.114563%, 99.565125%)" offset="0.59375"/><stop stop-opacity="1" stop-color="rgb(22.395325%, 71.890259%, 99.69635%)" offset="0.601563"/><stop stop-opacity="1" stop-color="rgb(22.206116%, 71.664429%, 99.827576%)" offset="0.609375"/><stop stop-opacity="1" stop-color="rgb(22.192383%, 71.517944%, 99.946594%)" offset="0.617188"/><stop stop-opacity="1" stop-color="rgb(23.132324%, 71.798706%, 100%)" offset="0.621094"/><stop stop-opacity="1" stop-color="rgb(23.991394%, 72.114563%, 100%)" offset="0.625"/><stop stop-opacity="1" stop-color="rgb(24.850464%, 72.428894%, 100%)" offset="0.628906"/><stop stop-opacity="1" stop-color="rgb(25.709534%, 72.744751%, 100%)" offset="0.632813"/><stop stop-opacity="1" stop-color="rgb(26.568604%, 73.059082%, 100%)" offset="0.636719"/><stop stop-opacity="1" stop-color="rgb(27.427673%, 73.374939%, 100%)" offset="0.640625"/><stop stop-opacity="1" stop-color="rgb(28.286743%, 73.68927%, 100%)" offset="0.644531"/><stop stop-opacity="1" stop-color="rgb(29.145813%, 74.005127%, 100%)" offset="0.648438"/><stop stop-opacity="1" stop-color="rgb(30.004883%, 74.320984%, 100%)" offset="0.652344"/><stop stop-opacity="1" stop-color="rgb(30.863953%, 74.636841%, 100%)" offset="0.65625"/><stop stop-opacity="1" stop-color="rgb(31.723022%, 74.951172%, 100%)" offset="0.660156"/><stop stop-opacity="1" stop-color="rgb(32.582092%, 75.267029%, 100%)" offset="0.664063"/><stop stop-opacity="1" stop-color="rgb(33.441162%, 75.58136%, 100%)" offset="0.667969"/><stop stop-opacity="1" stop-color="rgb(34.301758%, 75.897217%, 100%)" offset="0.671875"/><stop stop-opacity="1" stop-color="rgb(35.160828%, 76.211548%, 100%)" offset="0.675781"/><stop stop-opacity="1" stop-color="rgb(36.019897%, 76.527405%, 100%)" offset="0.679688"/><stop stop-opacity="1" stop-color="rgb(36.878967%, 76.841736%, 100%)" offset="0.683594"/><stop stop-opacity="1" stop-color="rgb(37.738037%, 77.157593%, 100%)" offset="0.6875"/><stop stop-opacity="1" stop-color="rgb(38.597107%, 77.471924%, 100%)" offset="0.691406"/><stop stop-opacity="1" stop-color="rgb(39.456177%, 77.787781%, 100%)" offset="0.695313"/><stop stop-opacity="1" stop-color="rgb(40.315247%, 78.102112%, 100%)" offset="0.699219"/><stop stop-opacity="1" stop-color="rgb(41.174316%, 78.417969%, 100%)" offset="0.703125"/><stop stop-opacity="1" stop-color="rgb(42.033386%, 78.7323%, 100%)" offset="0.707031"/><stop stop-opacity="1" stop-color="rgb(42.892456%, 79.048157%, 100%)" offset="0.710938"/><stop stop-opacity="1" stop-color="rgb(43.751526%, 79.364014%, 100%)" offset="0.714844"/><stop stop-opacity="1" stop-color="rgb(44.610596%, 79.679871%, 100%)" offset="0.71875"/><stop stop-opacity="1" stop-color="rgb(45.469666%, 79.994202%, 100%)" offset="0.722656"/><stop stop-opacity="1" stop-color="rgb(46.328735%, 80.310059%, 100%)" offset="0.726563"/><stop stop-opacity="1" stop-color="rgb(47.187805%, 80.62439%, 100%)" offset="0.730469"/><stop stop-opacity="1" stop-color="rgb(48.046875%, 80.940247%, 100%)" offset="0.734375"/><stop stop-opacity="1" stop-color="rgb(48.905945%, 81.254578%, 100%)" offset="0.738281"/><stop stop-opacity="1" stop-color="rgb(49.765015%, 81.570435%, 100%)" offset="0.742188"/><stop stop-opacity="1" stop-color="rgb(50.624084%, 81.884766%, 100%)" offset="0.746094"/><stop stop-opacity="1" stop-color="rgb(51.48468%, 82.200623%, 100%)" offset="0.75"/><stop stop-opacity="1" stop-color="rgb(52.34375%, 82.514954%, 100%)" offset="0.753906"/><stop stop-opacity="1" stop-color="rgb(53.20282%, 82.830811%, 100%)" offset="0.757813"/><stop stop-opacity="1" stop-color="rgb(54.06189%, 83.145142%, 100%)" offset="0.761719"/><stop stop-opacity="1" stop-color="rgb(54.920959%, 83.460999%, 100%)" offset="0.765625"/><stop stop-opacity="1" stop-color="rgb(55.780029%, 83.77533%, 100%)" offset="0.769531"/><stop stop-opacity="1" stop-color="rgb(56.639099%, 84.091187%, 100%)" offset="0.773438"/><stop stop-opacity="1" stop-color="rgb(57.498169%, 84.407043%, 100%)" offset="0.777344"/><stop stop-opacity="1" stop-color="rgb(58.357239%, 84.7229%, 100%)" offset="0.78125"/><stop stop-opacity="1" stop-color="rgb(59.216309%, 85.037231%, 100%)" offset="0.785156"/><stop stop-opacity="1" stop-color="rgb(60.075378%, 85.353088%, 100%)" offset="0.789063"/><stop stop-opacity="1" stop-color="rgb(60.934448%, 85.667419%, 100%)" offset="0.792969"/><stop stop-opacity="1" stop-color="rgb(61.793518%, 85.983276%, 100%)" offset="0.796875"/><stop stop-opacity="1" stop-color="rgb(62.652588%, 86.297607%, 100%)" offset="0.800781"/><stop stop-opacity="1" stop-color="rgb(63.511658%, 86.613464%, 100%)" offset="0.804688"/><stop stop-opacity="1" stop-color="rgb(64.370728%, 86.927795%, 100%)" offset="0.808594"/><stop stop-opacity="1" stop-color="rgb(65.229797%, 87.243652%, 100%)" offset="0.8125"/><stop stop-opacity="1" stop-color="rgb(66.088867%, 87.557983%, 100%)" offset="0.816406"/><stop stop-opacity="1" stop-color="rgb(66.947937%, 87.87384%, 100%)" offset="0.820313"/><stop stop-opacity="1" stop-color="rgb(67.807007%, 88.188171%, 100%)" offset="0.824219"/><stop stop-opacity="1" stop-color="rgb(68.667603%, 88.504028%, 100%)" offset="0.828125"/><stop stop-opacity="1" stop-color="rgb(69.526672%, 88.818359%, 100%)" offset="0.832031"/><stop stop-opacity="1" stop-color="rgb(70.385742%, 89.134216%, 100%)" offset="0.835938"/><stop stop-opacity="1" stop-color="rgb(71.244812%, 89.450073%, 100%)" offset="0.839844"/><stop stop-opacity="1" stop-color="rgb(72.103882%, 89.76593%, 100%)" offset="0.84375"/><stop stop-opacity="1" stop-color="rgb(72.962952%, 90.080261%, 100%)" offset="0.847656"/><stop stop-opacity="1" stop-color="rgb(73.822021%, 90.396118%, 100%)" offset="0.851562"/><stop stop-opacity="1" stop-color="rgb(74.681091%, 90.710449%, 100%)" offset="0.855469"/><stop stop-opacity="1" stop-color="rgb(75.540161%, 91.026306%, 100%)" offset="0.859375"/><stop stop-opacity="1" stop-color="rgb(76.399231%, 91.340637%, 100%)" offset="0.863281"/><stop stop-opacity="1" stop-color="rgb(77.258301%, 91.656494%, 100%)" offset="0.867188"/><stop stop-opacity="1" stop-color="rgb(78.117371%, 91.970825%, 100%)" offset="0.871094"/><stop stop-opacity="1" stop-color="rgb(78.97644%, 92.286682%, 100%)" offset="0.875"/><stop stop-opacity="1" stop-color="rgb(79.83551%, 92.601013%, 100%)" offset="0.878906"/><stop stop-opacity="1" stop-color="rgb(80.69458%, 92.91687%, 100%)" offset="0.882813"/><stop stop-opacity="1" stop-color="rgb(81.55365%, 93.231201%, 100%)" offset="0.886719"/><stop stop-opacity="1" stop-color="rgb(82.41272%, 93.547058%, 100%)" offset="0.890625"/><stop stop-opacity="1" stop-color="rgb(83.27179%, 93.861389%, 100%)" offset="0.894531"/><stop stop-opacity="1" stop-color="rgb(84.130859%, 94.177246%, 100%)" offset="0.898438"/><stop stop-opacity="1" stop-color="rgb(84.989929%, 94.493103%, 100%)" offset="0.902344"/><stop stop-opacity="1" stop-color="rgb(85.850525%, 94.80896%, 100%)" offset="0.90625"/><stop stop-opacity="1" stop-color="rgb(86.709595%, 95.123291%, 100%)" offset="0.910156"/><stop stop-opacity="1" stop-color="rgb(87.568665%, 95.439148%, 100%)" offset="0.914063"/><stop stop-opacity="1" stop-color="rgb(88.427734%, 95.753479%, 100%)" offset="0.917969"/><stop stop-opacity="1" stop-color="rgb(89.286804%, 96.069336%, 100%)" offset="0.921875"/><stop stop-opacity="1" stop-color="rgb(90.145874%, 96.383667%, 100%)" offset="0.925781"/><stop stop-opacity="1" stop-color="rgb(91.004944%, 96.699524%, 100%)" offset="0.929688"/><stop stop-opacity="1" stop-color="rgb(91.864014%, 97.013855%, 100%)" offset="0.933594"/><stop stop-opacity="1" stop-color="rgb(92.723083%, 97.329712%, 100%)" offset="0.9375"/><stop stop-opacity="1" stop-color="rgb(93.582153%, 97.644043%, 100%)" offset="0.941406"/><stop stop-opacity="1" stop-color="rgb(94.441223%, 97.9599%, 100%)" offset="0.945312"/><stop stop-opacity="1" stop-color="rgb(95.300293%, 98.274231%, 100%)" offset="0.949219"/><stop stop-opacity="1" stop-color="rgb(96.159363%, 98.590088%, 100%)" offset="0.953125"/><stop stop-opacity="1" stop-color="rgb(97.018433%, 98.904419%, 100%)" offset="0.957031"/><stop stop-opacity="1" stop-color="rgb(97.877502%, 99.220276%, 100%)" offset="0.960938"/><stop stop-opacity="1" stop-color="rgb(98.736572%, 99.536133%, 100%)" offset="0.964844"/><stop stop-opacity="1" stop-color="rgb(99.595642%, 99.85199%, 100%)" offset="0.96875"/><stop stop-opacity="1" stop-color="rgb(99.797058%, 99.925232%, 100%)" offset="0.972656"/><stop stop-opacity="1" stop-color="rgb(100%, 100%, 100%)" offset="0.976562"/><stop stop-opacity="1" stop-color="rgb(100%, 100%, 100%)" offset="0.984375"/><stop stop-opacity="1" stop-color="rgb(100%, 100%, 100%)" offset="1"/></linearGradient><clipPath id="ea0e060950"><rect x="0" width="141" y="0" height="216"/></clipPath><clipPath id="7403629d14"><rect x="0" width="677" y="0" height="80"/></clipPath></defs><rect x="-88.8" width="1065.6" fill="#ffffff" y="-38.099999" height="457.199989" fill-opacity="1"/><g clip-path="url(#dc7129297c)"><g clip-path="url(#6bf356e443)"><g clip-path="url(#ae891aaa3c)"><g clip-path="url(#70ea3dc1a9)"><path fill="url(#1308a26445)" d="M 553.511719 56.425781 L 362.53125 -54.753906 L 237.789062 159.523438 L 428.769531 270.699219 Z M 553.511719 56.425781 " fill-rule="nonzero"/></g></g></g></g><g clip-path="url(#6a96f881be)"><g clip-path="url(#c2f7f3d29b)"><g transform="matrix(1, 0, 0, 1, 430, 0)"><g clip-path="url(#ea0e060950)"><g clip-path="url(#f50fcef005)"><g clip-path="url(#3472369900)"><g clip-path="url(#eedb2088ff)"><g clip-path="url(#a2bfe9da6f)"><path fill="url(#46b4580d44)" d="M -87.429688 56.417969 L 103.546875 -54.75 L 228.28125 159.53125 L 37.300781 270.699219 Z M -87.429688 56.417969 " fill-rule="nonzero"/></g></g></g></g></g></g></g></g><g transform="matrix(1, 0, 0, 1, 106, 231)"><g clip-path="url(#7403629d14)"><g fill="#38b6ff" fill-opacity="1"><g transform="translate(1.102339, 61.865754)"><g><path d="M 18.859375 0.625 C 15.847656 0.625 13.164062 0.25 10.8125 -0.5 C 8.46875 -1.257812 6.269531 -2.539062 4.21875 -4.34375 C 3.082031 -5.34375 2.515625 -6.453125 2.515625 -7.671875 C 2.515625 -8.640625 2.867188 -9.488281 3.578125 -10.21875 C 4.296875 -10.945312 5.15625 -11.3125 6.15625 -11.3125 C 6.957031 -11.3125 7.671875 -11.0625 8.296875 -10.5625 C 9.972656 -9.175781 11.609375 -8.171875 13.203125 -7.546875 C 14.796875 -6.921875 16.679688 -6.609375 18.859375 -6.609375 C 21.210938 -6.609375 23.238281 -7.128906 24.9375 -8.171875 C 26.632812 -9.222656 27.484375 -10.523438 27.484375 -12.078125 C 27.484375 -13.960938 26.644531 -15.4375 24.96875 -16.5 C 23.289062 -17.570312 20.628906 -18.382812 16.984375 -18.9375 C 7.796875 -20.269531 3.203125 -24.546875 3.203125 -31.765625 C 3.203125 -34.398438 3.894531 -36.691406 5.28125 -38.640625 C 6.664062 -40.597656 8.550781 -42.085938 10.9375 -43.109375 C 13.332031 -44.140625 16 -44.65625 18.9375 -44.65625 C 21.570312 -44.65625 24.050781 -44.253906 26.375 -43.453125 C 28.707031 -42.660156 30.648438 -41.613281 32.203125 -40.3125 C 33.421875 -39.34375 34.03125 -38.234375 34.03125 -36.984375 C 34.03125 -36.015625 33.671875 -35.160156 32.953125 -34.421875 C 32.242188 -33.691406 31.40625 -33.328125 30.4375 -33.328125 C 29.8125 -33.328125 29.242188 -33.515625 28.734375 -33.890625 C 27.648438 -34.773438 26.128906 -35.582031 24.171875 -36.3125 C 22.222656 -37.050781 20.476562 -37.421875 18.9375 -37.421875 C 16.289062 -37.421875 14.242188 -36.925781 12.796875 -35.9375 C 11.347656 -34.957031 10.625 -33.671875 10.625 -32.078125 C 10.625 -30.273438 11.367188 -28.910156 12.859375 -27.984375 C 14.347656 -27.066406 16.6875 -26.3125 19.875 -25.71875 C 23.476562 -25.09375 26.359375 -24.285156 28.515625 -23.296875 C 30.679688 -22.316406 32.304688 -20.976562 33.390625 -19.28125 C 34.484375 -17.582031 35.03125 -15.328125 35.03125 -12.515625 C 35.03125 -9.867188 34.285156 -7.550781 32.796875 -5.5625 C 31.304688 -3.570312 29.320312 -2.039062 26.84375 -0.96875 C 24.375 0.09375 21.710938 0.625 18.859375 0.625 Z M 18.859375 0.625 "/></g></g></g><g fill="#38b6ff" fill-opacity="1"><g transform="translate(38.633165, 61.865754)"><g><path d="M 42.890625 -44.09375 C 43.941406 -44.09375 44.851562 -43.722656 45.625 -42.984375 C 46.40625 -42.253906 46.796875 -41.34375 46.796875 -40.25 L 46.796875 -3.84375 C 46.796875 -2.75 46.4375 -1.832031 45.71875 -1.09375 C 45.007812 -0.363281 44.066406 0 42.890625 0 C 41.710938 0 40.753906 -0.351562 40.015625 -1.0625 C 39.285156 -1.78125 38.921875 -2.707031 38.921875 -3.84375 L 38.921875 -29.1875 L 28.546875 -13.328125 C 28.128906 -12.828125 27.644531 -12.421875 27.09375 -12.109375 C 26.550781 -11.796875 25.988281 -11.660156 25.40625 -11.703125 C 24.863281 -11.660156 24.316406 -11.796875 23.765625 -12.109375 C 23.222656 -12.421875 22.742188 -12.828125 22.328125 -13.328125 L 11.953125 -29.75 L 11.953125 -3.84375 C 11.953125 -2.707031 11.613281 -1.78125 10.9375 -1.0625 C 10.269531 -0.351562 9.390625 0 8.296875 0 C 7.253906 0 6.394531 -0.363281 5.71875 -1.09375 C 5.050781 -1.832031 4.71875 -2.75 4.71875 -3.84375 L 4.71875 -40.25 C 4.71875 -41.300781 5.101562 -42.203125 5.875 -42.953125 C 6.65625 -43.710938 7.585938 -44.09375 8.671875 -44.09375 C 9.304688 -44.09375 9.9375 -43.929688 10.5625 -43.609375 C 11.195312 -43.296875 11.679688 -42.890625 12.015625 -42.390625 L 25.71875 -21.3125 L 39.8125 -42.390625 C 40.144531 -42.890625 40.59375 -43.296875 41.15625 -43.609375 C 41.726562 -43.929688 42.304688 -44.09375 42.890625 -44.09375 Z M 42.890625 -44.09375 "/></g></g></g><g fill="#38b6ff" fill-opacity="1"><g transform="translate(90.120183, 61.865754)"><g><path d="M 39.25 -4.90625 C 39.457031 -4.363281 39.5625 -3.859375 39.5625 -3.390625 C 39.5625 -2.304688 39.203125 -1.414062 38.484375 -0.71875 C 37.773438 -0.03125 36.957031 0.3125 36.03125 0.3125 C 35.28125 0.3125 34.597656 0.0820312 33.984375 -0.375 C 33.378906 -0.832031 32.910156 -1.460938 32.578125 -2.265625 L 29.3125 -9.875 L 10.5625 -9.875 L 7.296875 -2.203125 C 7.003906 -1.398438 6.550781 -0.78125 5.9375 -0.34375 C 5.332031 0.09375 4.675781 0.3125 3.96875 0.3125 C 2.875 0.3125 2.039062 0.0195312 1.46875 -0.5625 C 0.90625 -1.15625 0.625 -1.953125 0.625 -2.953125 C 0.625 -3.328125 0.6875 -3.726562 0.8125 -4.15625 L 16.484375 -41.765625 C 16.816406 -42.597656 17.316406 -43.242188 17.984375 -43.703125 C 18.660156 -44.171875 19.414062 -44.363281 20.25 -44.28125 C 21 -44.28125 21.695312 -44.054688 22.34375 -43.609375 C 23 -43.171875 23.472656 -42.554688 23.765625 -41.765625 Z M 13.640625 -17.109375 L 26.21875 -17.109375 L 19.875 -31.828125 Z M 13.640625 -17.109375 "/></g></g></g><g fill="#38b6ff" fill-opacity="1"><g transform="translate(130.291366, 61.865754)"><g><path d="M 39.25 -6.15625 C 39.789062 -5.820312 40.21875 -5.382812 40.53125 -4.84375 C 40.84375 -4.300781 41 -3.734375 41 -3.140625 C 41 -2.390625 40.75 -1.695312 40.25 -1.0625 C 39.625 -0.3125 38.660156 0.0625 37.359375 0.0625 C 36.347656 0.0625 35.425781 -0.164062 34.59375 -0.625 C 31.570312 -2.34375 30.0625 -5.84375 30.0625 -11.125 C 30.0625 -12.632812 29.566406 -13.828125 28.578125 -14.703125 C 27.597656 -15.585938 26.1875 -16.03125 24.34375 -16.03125 L 12.578125 -16.03125 L 12.578125 -3.84375 C 12.578125 -2.707031 12.269531 -1.78125 11.65625 -1.0625 C 11.050781 -0.351562 10.25 0 9.25 0 C 8.03125 0 6.96875 -0.363281 6.0625 -1.09375 C 5.164062 -1.832031 4.71875 -2.75 4.71875 -3.84375 L 4.71875 -40.1875 C 4.71875 -41.28125 5.082031 -42.191406 5.8125 -42.921875 C 6.550781 -43.648438 7.460938 -44.015625 8.546875 -44.015625 L 26.671875 -44.015625 C 28.847656 -44.015625 30.898438 -43.425781 32.828125 -42.25 C 34.753906 -41.082031 36.296875 -39.472656 37.453125 -37.421875 C 38.609375 -35.367188 39.1875 -33.0625 39.1875 -30.5 C 39.1875 -28.40625 38.617188 -26.359375 37.484375 -24.359375 C 36.347656 -22.367188 34.878906 -20.789062 33.078125 -19.625 C 35.722656 -17.78125 37.171875 -15.304688 37.421875 -12.203125 C 37.546875 -11.523438 37.609375 -10.875 37.609375 -10.25 C 37.773438 -8.945312 37.941406 -8.015625 38.109375 -7.453125 C 38.273438 -6.890625 38.65625 -6.457031 39.25 -6.15625 Z M 26.34375 -22.515625 C 27.101562 -22.515625 27.835938 -22.867188 28.546875 -23.578125 C 29.265625 -24.296875 29.851562 -25.25 30.3125 -26.4375 C 30.769531 -27.632812 31 -28.925781 31 -30.3125 C 31 -31.488281 30.769531 -32.566406 30.3125 -33.546875 C 29.851562 -34.535156 29.265625 -35.320312 28.546875 -35.90625 C 27.835938 -36.5 27.101562 -36.796875 26.34375 -36.796875 L 12.578125 -36.796875 L 12.578125 -22.515625 Z M 26.34375 -22.515625 "/></g></g></g><g fill="#38b6ff" fill-opacity="1"><g transform="translate(173.480097, 61.865754)"><g><path d="M 33.640625 -44.015625 C 34.773438 -44.015625 35.695312 -43.679688 36.40625 -43.015625 C 37.125 -42.347656 37.484375 -41.46875 37.484375 -40.375 C 37.484375 -39.28125 37.125 -38.410156 36.40625 -37.765625 C 35.695312 -37.117188 34.773438 -36.796875 33.640625 -36.796875 L 23.765625 -36.796875 L 23.765625 -3.84375 C 23.765625 -2.75 23.363281 -1.832031 22.5625 -1.09375 C 21.769531 -0.363281 20.789062 0 19.625 0 C 18.445312 0 17.476562 -0.363281 16.71875 -1.09375 C 15.96875 -1.832031 15.59375 -2.75 15.59375 -3.84375 L 15.59375 -36.796875 L 5.71875 -36.796875 C 4.59375 -36.796875 3.671875 -37.128906 2.953125 -37.796875 C 2.242188 -38.460938 1.890625 -39.34375 1.890625 -40.4375 C 1.890625 -41.488281 2.253906 -42.347656 2.984375 -43.015625 C 3.722656 -43.679688 4.632812 -44.015625 5.71875 -44.015625 Z M 33.640625 -44.015625 "/></g></g></g><g fill="#000000" fill-opacity="1"><g transform="translate(212.839264, 61.865754)"><g/></g></g><g fill="#000000" fill-opacity="1"><g transform="translate(230.441672, 61.865754)"><g><path d="M 31.125 -24.40625 C 33.351562 -23.519531 35.164062 -22.175781 36.5625 -20.375 C 37.96875 -18.570312 38.671875 -16.242188 38.671875 -13.390625 C 38.671875 -8.398438 37.242188 -4.921875 34.390625 -2.953125 C 31.546875 -0.984375 28.15625 0 24.21875 0 L 8.546875 0 C 7.460938 0 6.550781 -0.363281 5.8125 -1.09375 C 5.082031 -1.832031 4.71875 -2.75 4.71875 -3.84375 L 4.71875 -40.1875 C 4.71875 -41.28125 5.082031 -42.191406 5.8125 -42.921875 C 6.550781 -43.648438 7.460938 -44.015625 8.546875 -44.015625 L 24.40625 -44.015625 C 32.363281 -44.015625 36.34375 -40.285156 36.34375 -32.828125 C 36.34375 -30.941406 35.890625 -29.273438 34.984375 -27.828125 C 34.085938 -26.378906 32.800781 -25.238281 31.125 -24.40625 Z M 28.171875 -31.4375 C 28.171875 -33.164062 27.738281 -34.457031 26.875 -35.3125 C 26.019531 -36.175781 24.816406 -36.609375 23.265625 -36.609375 L 12.890625 -36.609375 L 12.890625 -26.796875 L 23.453125 -26.796875 C 24.710938 -26.796875 25.8125 -27.210938 26.75 -28.046875 C 27.695312 -28.890625 28.171875 -30.019531 28.171875 -31.4375 Z M 24.21875 -7.234375 C 26.1875 -7.234375 27.722656 -7.753906 28.828125 -8.796875 C 29.941406 -9.847656 30.5 -11.378906 30.5 -13.390625 C 30.5 -15.867188 29.847656 -17.484375 28.546875 -18.234375 C 27.253906 -18.992188 25.660156 -19.375 23.765625 -19.375 L 12.890625 -19.375 L 12.890625 -7.234375 Z M 24.21875 -7.234375 "/></g></g></g><g fill="#000000" fill-opacity="1"><g transform="translate(271.618713, 61.865754)"><g><path d="M 39.25 -6.15625 C 39.789062 -5.820312 40.21875 -5.382812 40.53125 -4.84375 C 40.84375 -4.300781 41 -3.734375 41 -3.140625 C 41 -2.390625 40.75 -1.695312 40.25 -1.0625 C 39.625 -0.3125 38.660156 0.0625 37.359375 0.0625 C 36.347656 0.0625 35.425781 -0.164062 34.59375 -0.625 C 31.570312 -2.34375 30.0625 -5.84375 30.0625 -11.125 C 30.0625 -12.632812 29.566406 -13.828125 28.578125 -14.703125 C 27.597656 -15.585938 26.1875 -16.03125 24.34375 -16.03125 L 12.578125 -16.03125 L 12.578125 -3.84375 C 12.578125 -2.707031 12.269531 -1.78125 11.65625 -1.0625 C 11.050781 -0.351562 10.25 0 9.25 0 C 8.03125 0 6.96875 -0.363281 6.0625 -1.09375 C 5.164062 -1.832031 4.71875 -2.75 4.71875 -3.84375 L 4.71875 -40.1875 C 4.71875 -41.28125 5.082031 -42.191406 5.8125 -42.921875 C 6.550781 -43.648438 7.460938 -44.015625 8.546875 -44.015625 L 26.671875 -44.015625 C 28.847656 -44.015625 30.898438 -43.425781 32.828125 -42.25 C 34.753906 -41.082031 36.296875 -39.472656 37.453125 -37.421875 C 38.609375 -35.367188 39.1875 -33.0625 39.1875 -30.5 C 39.1875 -28.40625 38.617188 -26.359375 37.484375 -24.359375 C 36.347656 -22.367188 34.878906 -20.789062 33.078125 -19.625 C 35.722656 -17.78125 37.171875 -15.304688 37.421875 -12.203125 C 37.546875 -11.523438 37.609375 -10.875 37.609375 -10.25 C 37.773438 -8.945312 37.941406 -8.015625 38.109375 -7.453125 C 38.273438 -6.890625 38.65625 -6.457031 39.25 -6.15625 Z M 26.34375 -22.515625 C 27.101562 -22.515625 27.835938 -22.867188 28.546875 -23.578125 C 29.265625 -24.296875 29.851562 -25.25 30.3125 -26.4375 C 30.769531 -27.632812 31 -28.925781 31 -30.3125 C 31 -31.488281 30.769531 -32.566406 30.3125 -33.546875 C 29.851562 -34.535156 29.265625 -35.320312 28.546875 -35.90625 C 27.835938 -36.5 27.101562 -36.796875 26.34375 -36.796875 L 12.578125 -36.796875 L 12.578125 -22.515625 Z M 26.34375 -22.515625 "/></g></g></g><g fill="#000000" fill-opacity="1"><g transform="translate(314.807443, 61.865754)"><g><path d="M 39.25 -4.90625 C 39.457031 -4.363281 39.5625 -3.859375 39.5625 -3.390625 C 39.5625 -2.304688 39.203125 -1.414062 38.484375 -0.71875 C 37.773438 -0.03125 36.957031 0.3125 36.03125 0.3125 C 35.28125 0.3125 34.597656 0.0820312 33.984375 -0.375 C 33.378906 -0.832031 32.910156 -1.460938 32.578125 -2.265625 L 29.3125 -9.875 L 10.5625 -9.875 L 7.296875 -2.203125 C 7.003906 -1.398438 6.550781 -0.78125 5.9375 -0.34375 C 5.332031 0.09375 4.675781 0.3125 3.96875 0.3125 C 2.875 0.3125 2.039062 0.0195312 1.46875 -0.5625 C 0.90625 -1.15625 0.625 -1.953125 0.625 -2.953125 C 0.625 -3.328125 0.6875 -3.726562 0.8125 -4.15625 L 16.484375 -41.765625 C 16.816406 -42.597656 17.316406 -43.242188 17.984375 -43.703125 C 18.660156 -44.171875 19.414062 -44.363281 20.25 -44.28125 C 21 -44.28125 21.695312 -44.054688 22.34375 -43.609375 C 23 -43.171875 23.472656 -42.554688 23.765625 -41.765625 Z M 13.640625 -17.109375 L 26.21875 -17.109375 L 19.875 -31.828125 Z M 13.640625 -17.109375 "/></g></g></g><g fill="#000000" fill-opacity="1"><g transform="translate(354.978626, 61.865754)"><g><path d="M 12.578125 -3.84375 C 12.578125 -2.75 12.175781 -1.832031 11.375 -1.09375 C 10.582031 -0.363281 9.660156 0 8.609375 0 C 7.484375 0 6.550781 -0.363281 5.8125 -1.09375 C 5.082031 -1.832031 4.71875 -2.75 4.71875 -3.84375 L 4.71875 -40.1875 C 4.71875 -41.28125 5.09375 -42.191406 5.84375 -42.921875 C 6.601562 -43.648438 7.566406 -44.015625 8.734375 -44.015625 C 9.785156 -44.015625 10.6875 -43.648438 11.4375 -42.921875 C 12.195312 -42.191406 12.578125 -41.28125 12.578125 -40.1875 Z M 12.578125 -3.84375 "/></g></g></g><g fill="#000000" fill-opacity="1"><g transform="translate(372.266687, 61.865754)"><g><path d="M 38.109375 -44.015625 C 39.117188 -44.015625 39.9375 -43.679688 40.5625 -43.015625 C 41.1875 -42.347656 41.5 -41.507812 41.5 -40.5 L 41.5 -3.84375 C 41.5 -2.75 41.132812 -1.832031 40.40625 -1.09375 C 39.675781 -0.363281 38.765625 0 37.671875 0 C 37.085938 0 36.507812 -0.09375 35.9375 -0.28125 C 35.375 -0.46875 34.96875 -0.726562 34.71875 -1.0625 L 11.640625 -30.375 L 11.640625 -3.515625 C 11.640625 -2.515625 11.3125 -1.675781 10.65625 -1 C 10.007812 -0.332031 9.160156 0 8.109375 0 C 7.109375 0 6.289062 -0.332031 5.65625 -1 C 5.03125 -1.675781 4.71875 -2.515625 4.71875 -3.515625 L 4.71875 -40.1875 C 4.71875 -41.28125 5.082031 -42.191406 5.8125 -42.921875 C 6.550781 -43.648438 7.460938 -44.015625 8.546875 -44.015625 C 9.179688 -44.015625 9.800781 -43.890625 10.40625 -43.640625 C 11.007812 -43.390625 11.460938 -43.054688 11.765625 -42.640625 L 34.65625 -13.453125 L 34.65625 -40.5 C 34.65625 -41.507812 34.976562 -42.347656 35.625 -43.015625 C 36.28125 -43.679688 37.109375 -44.015625 38.109375 -44.015625 Z M 38.109375 -44.015625 "/></g></g></g><g fill="#000000" fill-opacity="1"><g transform="translate(418.472991, 61.865754)"><g><path d="M 18.859375 0.625 C 15.847656 0.625 13.164062 0.25 10.8125 -0.5 C 8.46875 -1.257812 6.269531 -2.539062 4.21875 -4.34375 C 3.082031 -5.34375 2.515625 -6.453125 2.515625 -7.671875 C 2.515625 -8.640625 2.867188 -9.488281 3.578125 -10.21875 C 4.296875 -10.945312 5.15625 -11.3125 6.15625 -11.3125 C 6.957031 -11.3125 7.671875 -11.0625 8.296875 -10.5625 C 9.972656 -9.175781 11.609375 -8.171875 13.203125 -7.546875 C 14.796875 -6.921875 16.679688 -6.609375 18.859375 -6.609375 C 21.210938 -6.609375 23.238281 -7.128906 24.9375 -8.171875 C 26.632812 -9.222656 27.484375 -10.523438 27.484375 -12.078125 C 27.484375 -13.960938 26.644531 -15.4375 24.96875 -16.5 C 23.289062 -17.570312 20.628906 -18.382812 16.984375 -18.9375 C 7.796875 -20.269531 3.203125 -24.546875 3.203125 -31.765625 C 3.203125 -34.398438 3.894531 -36.691406 5.28125 -38.640625 C 6.664062 -40.597656 8.550781 -42.085938 10.9375 -43.109375 C 13.332031 -44.140625 16 -44.65625 18.9375 -44.65625 C 21.570312 -44.65625 24.050781 -44.253906 26.375 -43.453125 C 28.707031 -42.660156 30.648438 -41.613281 32.203125 -40.3125 C 33.421875 -39.34375 34.03125 -38.234375 34.03125 -36.984375 C 34.03125 -36.015625 33.671875 -35.160156 32.953125 -34.421875 C 32.242188 -33.691406 31.40625 -33.328125 30.4375 -33.328125 C 29.8125 -33.328125 29.242188 -33.515625 28.734375 -33.890625 C 27.648438 -34.773438 26.128906 -35.582031 24.171875 -36.3125 C 22.222656 -37.050781 20.476562 -37.421875 18.9375 -37.421875 C 16.289062 -37.421875 14.242188 -36.925781 12.796875 -35.9375 C 11.347656 -34.957031 10.625 -33.671875 10.625 -32.078125 C 10.625 -30.273438 11.367188 -28.910156 12.859375 -27.984375 C 14.347656 -27.066406 16.6875 -26.3125 19.875 -25.71875 C 23.476562 -25.09375 26.359375 -24.285156 28.515625 -23.296875 C 30.679688 -22.316406 32.304688 -20.976562 33.390625 -19.28125 C 34.484375 -17.582031 35.03125 -15.328125 35.03125 -12.515625 C 35.03125 -9.867188 34.285156 -7.550781 32.796875 -5.5625 C 31.304688 -3.570312 29.320312 -2.039062 26.84375 -0.96875 C 24.375 0.09375 21.710938 0.625 18.859375 0.625 Z M 18.859375 0.625 "/></g></g></g><g fill="#000000" fill-opacity="1"><g transform="translate(456.003816, 61.865754)"><g/></g></g><g fill="#ffbd59" fill-opacity="1"><g transform="translate(473.616157, 61.865754)"><g><path d="M 38.421875 -6.546875 C 38.671875 -6.203125 38.878906 -5.789062 39.046875 -5.3125 C 39.222656 -4.832031 39.3125 -4.382812 39.3125 -3.96875 C 39.3125 -2.832031 38.878906 -1.882812 38.015625 -1.125 C 37.160156 -0.375 36.164062 0 35.03125 0 C 34.488281 0 33.960938 -0.125 33.453125 -0.375 C 32.953125 -0.625 32.535156 -0.984375 32.203125 -1.453125 L 18.546875 -19.4375 L 12.578125 -13.703125 L 12.578125 -3.84375 C 12.578125 -2.707031 12.207031 -1.78125 11.46875 -1.0625 C 10.738281 -0.351562 9.785156 0 8.609375 0 C 7.484375 0 6.550781 -0.363281 5.8125 -1.09375 C 5.082031 -1.832031 4.71875 -2.75 4.71875 -3.84375 L 4.71875 -40.1875 C 4.71875 -41.28125 5.09375 -42.191406 5.84375 -42.921875 C 6.601562 -43.648438 7.566406 -44.015625 8.734375 -44.015625 C 9.867188 -44.015625 10.789062 -43.660156 11.5 -42.953125 C 12.21875 -42.242188 12.578125 -41.320312 12.578125 -40.1875 L 12.578125 -23.078125 L 32.703125 -42.890625 C 33.671875 -43.859375 34.695312 -44.34375 35.78125 -44.34375 C 36.75 -44.34375 37.566406 -43.941406 38.234375 -43.140625 C 38.910156 -42.347656 39.25 -41.507812 39.25 -40.625 C 39.25 -39.75 38.867188 -38.929688 38.109375 -38.171875 L 24.40625 -25.09375 Z M 38.421875 -6.546875 "/></g></g></g><g fill="#ffbd59" fill-opacity="1"><g transform="translate(514.793198, 61.865754)"><g><path d="M 29.625 -7.234375 C 30.707031 -7.234375 31.613281 -6.863281 32.34375 -6.125 C 33.082031 -5.394531 33.453125 -4.546875 33.453125 -3.578125 C 33.453125 -2.535156 33.082031 -1.675781 32.34375 -1 C 31.613281 -0.332031 30.707031 0 29.625 0 L 8.546875 0 C 7.460938 0 6.550781 -0.363281 5.8125 -1.09375 C 5.082031 -1.832031 4.71875 -2.75 4.71875 -3.84375 L 4.71875 -40.1875 C 4.71875 -41.28125 5.082031 -42.191406 5.8125 -42.921875 C 6.550781 -43.648438 7.460938 -44.015625 8.546875 -44.015625 L 29.625 -44.015625 C 30.707031 -44.015625 31.613281 -43.671875 32.34375 -42.984375 C 33.082031 -42.296875 33.453125 -41.40625 33.453125 -40.3125 C 33.453125 -39.257812 33.09375 -38.410156 32.375 -37.765625 C 31.664062 -37.117188 30.75 -36.796875 29.625 -36.796875 L 12.578125 -36.796875 L 12.578125 -26.09375 L 26.796875 -26.09375 C 27.878906 -26.09375 28.785156 -25.75 29.515625 -25.0625 C 30.253906 -24.375 30.625 -23.484375 30.625 -22.390625 C 30.625 -21.335938 30.265625 -20.484375 29.546875 -19.828125 C 28.835938 -19.179688 27.921875 -18.859375 26.796875 -18.859375 L 12.578125 -18.859375 L 12.578125 -7.234375 Z M 29.625 -7.234375 "/></g></g></g><g fill="#ffbd59" fill-opacity="1"><g transform="translate(550.752394, 61.865754)"><g><path d="M 38.109375 -44.015625 C 39.117188 -44.015625 39.9375 -43.679688 40.5625 -43.015625 C 41.1875 -42.347656 41.5 -41.507812 41.5 -40.5 L 41.5 -3.84375 C 41.5 -2.75 41.132812 -1.832031 40.40625 -1.09375 C 39.675781 -0.363281 38.765625 0 37.671875 0 C 37.085938 0 36.507812 -0.09375 35.9375 -0.28125 C 35.375 -0.46875 34.96875 -0.726562 34.71875 -1.0625 L 11.640625 -30.375 L 11.640625 -3.515625 C 11.640625 -2.515625 11.3125 -1.675781 10.65625 -1 C 10.007812 -0.332031 9.160156 0 8.109375 0 C 7.109375 0 6.289062 -0.332031 5.65625 -1 C 5.03125 -1.675781 4.71875 -2.515625 4.71875 -3.515625 L 4.71875 -40.1875 C 4.71875 -41.28125 5.082031 -42.191406 5.8125 -42.921875 C 6.550781 -43.648438 7.460938 -44.015625 8.546875 -44.015625 C 9.179688 -44.015625 9.800781 -43.890625 10.40625 -43.640625 C 11.007812 -43.390625 11.460938 -43.054688 11.765625 -42.640625 L 34.65625 -13.453125 L 34.65625 -40.5 C 34.65625 -41.507812 34.976562 -42.347656 35.625 -43.015625 C 36.28125 -43.679688 37.109375 -44.015625 38.109375 -44.015625 Z M 38.109375 -44.015625 "/></g></g></g><g fill="#ffbd59" fill-opacity="1"><g transform="translate(596.958698, 61.865754)"><g><path d="M 36.546875 -40.3125 C 36.546875 -39.476562 36.3125 -38.703125 35.84375 -37.984375 L 22.703125 -19.1875 L 22.703125 -3.84375 C 22.703125 -2.75 22.34375 -1.832031 21.625 -1.09375 C 20.914062 -0.363281 20.0625 0 19.0625 0 C 18.007812 0 17.113281 -0.363281 16.375 -1.09375 C 15.644531 -1.832031 15.28125 -2.75 15.28125 -3.84375 L 15.28125 -20.0625 L 2.203125 -37.421875 C 1.441406 -38.421875 1.0625 -39.40625 1.0625 -40.375 C 1.0625 -41.46875 1.488281 -42.378906 2.34375 -43.109375 C 3.207031 -43.847656 4.125 -44.21875 5.09375 -44.21875 C 6.269531 -44.21875 7.296875 -43.628906 8.171875 -42.453125 L 19.25 -27.171875 L 29.625 -42.328125 C 30.5 -43.585938 31.546875 -44.21875 32.765625 -44.21875 C 33.773438 -44.21875 34.65625 -43.835938 35.40625 -43.078125 C 36.164062 -42.328125 36.546875 -41.40625 36.546875 -40.3125 Z M 36.546875 -40.3125 "/></g></g></g><g fill="#ffbd59" fill-opacity="1"><g transform="translate(634.426654, 61.865754)"><g><path d="M 39.25 -4.90625 C 39.457031 -4.363281 39.5625 -3.859375 39.5625 -3.390625 C 39.5625 -2.304688 39.203125 -1.414062 38.484375 -0.71875 C 37.773438 -0.03125 36.957031 0.3125 36.03125 0.3125 C 35.28125 0.3125 34.597656 0.0820312 33.984375 -0.375 C 33.378906 -0.832031 32.910156 -1.460938 32.578125 -2.265625 L 29.3125 -9.875 L 10.5625 -9.875 L 7.296875 -2.203125 C 7.003906 -1.398438 6.550781 -0.78125 5.9375 -0.34375 C 5.332031 0.09375 4.675781 0.3125 3.96875 0.3125 C 2.875 0.3125 2.039062 0.0195312 1.46875 -0.5625 C 0.90625 -1.15625 0.625 -1.953125 0.625 -2.953125 C 0.625 -3.328125 0.6875 -3.726562 0.8125 -4.15625 L 16.484375 -41.765625 C 16.816406 -42.597656 17.316406 -43.242188 17.984375 -43.703125 C 18.660156 -44.171875 19.414062 -44.363281 20.25 -44.28125 C 21 -44.28125 21.695312 -44.054688 22.34375 -43.609375 C 23 -43.171875 23.472656 -42.554688 23.765625 -41.765625 Z M 13.640625 -17.109375 L 26.21875 -17.109375 L 19.875 -31.828125 Z M 13.640625 -17.109375 "/></g></g></g></g></g><g fill="#0954b8" fill-opacity="1"><g transform="translate(289.575373, 359.023481)"><g><path d="M 18.4375 -19.890625 C 18.4375 -19.390625 18.378906 -18.863281 18.265625 -18.3125 C 18.148438 -17.769531 17.960938 -17.265625 17.703125 -16.796875 C 17.441406 -16.328125 17.101562 -15.9375 16.6875 -15.625 C 16.269531 -15.3125 15.757812 -15.15625 15.15625 -15.15625 C 14.25 -15.15625 13.570312 -15.316406 13.125 -15.640625 C 12.6875 -15.972656 12.375 -16.382812 12.1875 -16.875 C 12.007812 -17.375 11.910156 -17.898438 11.890625 -18.453125 C 11.878906 -19.015625 11.859375 -19.539062 11.828125 -20.03125 C 11.804688 -20.53125 11.722656 -20.941406 11.578125 -21.265625 C 11.441406 -21.597656 11.140625 -21.765625 10.671875 -21.765625 C 10.148438 -21.765625 9.691406 -21.570312 9.296875 -21.1875 C 8.910156 -20.8125 8.570312 -20.320312 8.28125 -19.71875 C 8 -19.125 7.757812 -18.445312 7.5625 -17.6875 C 7.363281 -16.9375 7.207031 -16.191406 7.09375 -15.453125 C 6.976562 -14.710938 6.894531 -14.007812 6.84375 -13.34375 C 6.789062 -12.675781 6.765625 -12.132812 6.765625 -11.71875 C 6.765625 -11.175781 6.78125 -10.523438 6.8125 -9.765625 C 6.851562 -9.015625 6.976562 -8.289062 7.1875 -7.59375 C 7.394531 -6.90625 7.707031 -6.320312 8.125 -5.84375 C 8.539062 -5.363281 9.140625 -5.125 9.921875 -5.125 C 10.441406 -5.125 10.945312 -5.1875 11.4375 -5.3125 C 11.9375 -5.445312 12.429688 -5.597656 12.921875 -5.765625 C 13.421875 -5.929688 13.925781 -6.078125 14.4375 -6.203125 C 14.945312 -6.335938 15.460938 -6.40625 15.984375 -6.40625 C 16.578125 -6.40625 17.066406 -6.164062 17.453125 -5.6875 C 17.847656 -5.207031 18.046875 -4.664062 18.046875 -4.0625 C 18.046875 -3.226562 17.785156 -2.453125 17.265625 -1.734375 C 16.742188 -1.023438 16.097656 -0.394531 15.328125 0.15625 C 14.566406 0.707031 13.734375 1.140625 12.828125 1.453125 C 11.929688 1.765625 11.117188 1.921875 10.390625 1.921875 C 8.515625 1.921875 6.925781 1.492188 5.625 0.640625 C 4.320312 -0.203125 3.265625 -1.296875 2.453125 -2.640625 C 1.648438 -3.984375 1.070312 -5.476562 0.71875 -7.125 C 0.375 -8.78125 0.203125 -10.429688 0.203125 -12.078125 C 0.203125 -13.171875 0.304688 -14.367188 0.515625 -15.671875 C 0.722656 -16.972656 1.035156 -18.28125 1.453125 -19.59375 C 1.867188 -20.90625 2.394531 -22.171875 3.03125 -23.390625 C 3.664062 -24.617188 4.410156 -25.703125 5.265625 -26.640625 C 6.128906 -27.578125 7.101562 -28.332031 8.1875 -28.90625 C 9.269531 -29.476562 10.460938 -29.765625 11.765625 -29.765625 C 13.035156 -29.765625 14.097656 -29.445312 14.953125 -28.8125 C 15.816406 -28.175781 16.507812 -27.367188 17.03125 -26.390625 C 17.550781 -25.410156 17.914062 -24.34375 18.125 -23.1875 C 18.332031 -22.03125 18.4375 -20.929688 18.4375 -19.890625 Z M 18.4375 -19.890625 "/></g></g></g><g fill="#0954b8" fill-opacity="1"><g transform="translate(308.401658, 359.023481)"><g><path d="M 10.125 1.296875 C 8.53125 1.296875 7.144531 0.894531 5.96875 0.09375 C 4.800781 -0.695312 3.832031 -1.765625 3.0625 -3.109375 C 2.300781 -4.453125 1.726562 -6.007812 1.34375 -7.78125 C 0.96875 -9.550781 0.78125 -11.410156 0.78125 -13.359375 C 0.78125 -15.179688 0.984375 -17.03125 1.390625 -18.90625 C 1.796875 -20.78125 2.414062 -22.472656 3.25 -23.984375 C 4.082031 -25.492188 5.132812 -26.726562 6.40625 -27.6875 C 7.6875 -28.65625 9.210938 -29.140625 10.984375 -29.140625 C 12.703125 -29.140625 14.140625 -28.675781 15.296875 -27.75 C 16.453125 -26.832031 17.375 -25.632812 18.0625 -24.15625 C 18.757812 -22.6875 19.253906 -21.039062 19.546875 -19.21875 C 19.847656 -17.394531 20 -15.570312 20 -13.75 C 20 -11.71875 19.796875 -9.796875 19.390625 -7.984375 C 18.992188 -6.179688 18.382812 -4.585938 17.5625 -3.203125 C 16.738281 -1.828125 15.707031 -0.734375 14.46875 0.078125 C 13.238281 0.890625 11.789062 1.296875 10.125 1.296875 Z M 10.59375 -20.515625 C 10.09375 -20.515625 9.664062 -20.316406 9.3125 -19.921875 C 8.96875 -19.535156 8.675781 -19.019531 8.4375 -18.375 C 8.207031 -17.738281 8.039062 -17.023438 7.9375 -16.234375 C 7.832031 -15.441406 7.78125 -14.640625 7.78125 -13.828125 C 7.78125 -12.921875 7.835938 -12.007812 7.953125 -11.09375 C 8.066406 -10.1875 8.238281 -9.367188 8.46875 -8.640625 C 8.707031 -7.910156 9.003906 -7.320312 9.359375 -6.875 C 9.710938 -6.4375 10.132812 -6.21875 10.625 -6.21875 C 11.195312 -6.21875 11.648438 -6.503906 11.984375 -7.078125 C 12.328125 -7.648438 12.597656 -8.335938 12.796875 -9.140625 C 12.992188 -9.953125 13.125 -10.785156 13.1875 -11.640625 C 13.25 -12.503906 13.28125 -13.222656 13.28125 -13.796875 C 13.28125 -14.492188 13.234375 -15.234375 13.140625 -16.015625 C 13.054688 -16.796875 12.910156 -17.519531 12.703125 -18.1875 C 12.492188 -18.851562 12.21875 -19.40625 11.875 -19.84375 C 11.539062 -20.289062 11.113281 -20.515625 10.59375 -20.515625 Z M 10.59375 -20.515625 "/></g></g></g><g fill="#0954b8" fill-opacity="1"><g transform="translate(329.41523, 359.023481)"><g><path d="M 21.296875 -17.578125 C 21.296875 -15.285156 20.828125 -13.078125 19.890625 -10.953125 C 18.953125 -8.835938 17.691406 -6.957031 16.109375 -5.3125 C 14.535156 -3.675781 12.703125 -2.367188 10.609375 -1.390625 C 8.515625 -0.410156 6.304688 0.078125 3.984375 0.078125 L 3.90625 0.078125 C 3.4375 0.078125 3.050781 -0.132812 2.75 -0.5625 C 2.457031 -1 2.207031 -1.539062 2 -2.1875 C 1.789062 -2.84375 1.632812 -3.570312 1.53125 -4.375 C 1.425781 -5.1875 1.347656 -5.972656 1.296875 -6.734375 C 1.242188 -7.503906 1.21875 -8.195312 1.21875 -8.8125 C 1.21875 -9.425781 1.21875 -9.890625 1.21875 -10.203125 C 1.21875 -11.085938 1.226562 -11.960938 1.25 -12.828125 C 1.28125 -13.703125 1.320312 -14.582031 1.375 -15.46875 C 1.375 -15.757812 1.390625 -16.179688 1.421875 -16.734375 C 1.460938 -17.296875 1.507812 -17.925781 1.5625 -18.625 C 1.613281 -19.332031 1.675781 -20.070312 1.75 -20.84375 C 1.832031 -21.613281 1.921875 -22.328125 2.015625 -22.984375 C 2.109375 -23.648438 2.195312 -24.238281 2.28125 -24.75 C 2.375 -25.257812 2.488281 -25.601562 2.625 -25.78125 C 2.957031 -26.351562 3.472656 -26.859375 4.171875 -27.296875 C 4.878906 -27.742188 5.644531 -28.109375 6.46875 -28.390625 C 7.289062 -28.679688 8.125 -28.898438 8.96875 -29.046875 C 9.8125 -29.191406 10.546875 -29.265625 11.171875 -29.265625 C 12.890625 -29.265625 14.378906 -28.941406 15.640625 -28.296875 C 16.910156 -27.660156 17.96875 -26.800781 18.8125 -25.71875 C 19.65625 -24.644531 20.28125 -23.40625 20.6875 -22 C 21.09375 -20.59375 21.296875 -19.117188 21.296875 -17.578125 Z M 14.734375 -16.453125 C 14.734375 -17.023438 14.628906 -17.609375 14.421875 -18.203125 C 14.210938 -18.804688 13.914062 -19.351562 13.53125 -19.84375 C 13.15625 -20.34375 12.703125 -20.738281 12.171875 -21.03125 C 11.640625 -21.332031 11.046875 -21.484375 10.390625 -21.484375 C 9.847656 -21.484375 9.289062 -21.351562 8.71875 -21.09375 C 8.582031 -21.019531 8.460938 -20.78125 8.359375 -20.375 C 8.253906 -19.96875 8.171875 -19.476562 8.109375 -18.90625 C 8.046875 -18.332031 7.988281 -17.707031 7.9375 -17.03125 C 7.882812 -16.351562 7.847656 -15.707031 7.828125 -15.09375 C 7.816406 -14.488281 7.804688 -13.953125 7.796875 -13.484375 C 7.785156 -13.015625 7.78125 -12.703125 7.78125 -12.546875 C 7.78125 -12.285156 7.78125 -11.898438 7.78125 -11.390625 C 7.78125 -10.878906 7.796875 -10.375 7.828125 -9.875 C 7.867188 -9.382812 7.914062 -8.957031 7.96875 -8.59375 C 8.019531 -8.226562 8.113281 -8.046875 8.25 -8.046875 C 9.03125 -8.046875 9.800781 -8.351562 10.5625 -8.96875 C 11.332031 -9.582031 12.03125 -10.332031 12.65625 -11.21875 C 13.28125 -12.101562 13.78125 -13.023438 14.15625 -13.984375 C 14.539062 -14.953125 14.734375 -15.773438 14.734375 -16.453125 Z M 14.734375 -16.453125 "/></g></g></g><g fill="#0954b8" fill-opacity="1"><g transform="translate(351.288092, 359.023481)"><g><path d="M 14.6875 -26.53125 C 14.6875 -26.03125 14.578125 -25.582031 14.359375 -25.1875 C 14.140625 -24.800781 13.847656 -24.472656 13.484375 -24.203125 C 13.117188 -23.929688 12.710938 -23.703125 12.265625 -23.515625 C 11.828125 -23.335938 11.398438 -23.207031 10.984375 -23.125 C 10.929688 -20.1875 10.816406 -17.347656 10.640625 -14.609375 C 10.472656 -11.878906 10.207031 -9.054688 9.84375 -6.140625 L 10.078125 -6.140625 C 10.492188 -6.140625 10.90625 -6.09375 11.3125 -6 C 11.71875 -5.90625 12.082031 -5.75 12.40625 -5.53125 C 12.726562 -5.3125 12.988281 -5.035156 13.1875 -4.703125 C 13.382812 -4.378906 13.484375 -3.984375 13.484375 -3.515625 C 13.484375 -2.921875 13.289062 -2.398438 12.90625 -1.953125 C 12.53125 -1.515625 12.035156 -1.140625 11.421875 -0.828125 C 10.816406 -0.515625 10.132812 -0.25 9.375 -0.03125 C 8.625 0.175781 7.867188 0.335938 7.109375 0.453125 C 6.359375 0.566406 5.644531 0.648438 4.96875 0.703125 C 4.289062 0.753906 3.742188 0.78125 3.328125 0.78125 C 3.015625 0.78125 2.628906 0.765625 2.171875 0.734375 C 1.710938 0.710938 1.28125 0.632812 0.875 0.5 C 0.476562 0.375 0.132812 0.179688 -0.15625 -0.078125 C -0.445312 -0.335938 -0.59375 -0.691406 -0.59375 -1.140625 C -0.59375 -1.679688 -0.476562 -2.164062 -0.25 -2.59375 C -0.03125 -3.03125 0.257812 -3.414062 0.625 -3.75 C 0.988281 -4.09375 1.398438 -4.367188 1.859375 -4.578125 C 2.316406 -4.785156 2.78125 -4.941406 3.25 -5.046875 C 3.425781 -6.472656 3.59375 -7.894531 3.75 -9.3125 C 3.90625 -10.738281 4.007812 -12.179688 4.0625 -13.640625 C 4.113281 -15.117188 4.164062 -16.582031 4.21875 -18.03125 C 4.269531 -19.476562 4.320312 -20.929688 4.375 -22.390625 C 4.195312 -22.359375 4.03125 -22.335938 3.875 -22.328125 C 3.71875 -22.316406 3.570312 -22.3125 3.4375 -22.3125 C 3.070312 -22.3125 2.679688 -22.347656 2.265625 -22.421875 C 1.847656 -22.503906 1.457031 -22.640625 1.09375 -22.828125 C 0.726562 -23.023438 0.421875 -23.265625 0.171875 -23.546875 C -0.078125 -23.835938 -0.203125 -24.207031 -0.203125 -24.65625 C -0.203125 -25.539062 0.164062 -26.269531 0.90625 -26.84375 C 1.65625 -27.414062 2.546875 -27.859375 3.578125 -28.171875 C 4.609375 -28.484375 5.65625 -28.695312 6.71875 -28.8125 C 7.789062 -28.925781 8.648438 -28.984375 9.296875 -28.984375 C 9.660156 -28.984375 10.140625 -28.957031 10.734375 -28.90625 C 11.335938 -28.851562 11.929688 -28.734375 12.515625 -28.546875 C 13.109375 -28.367188 13.617188 -28.125 14.046875 -27.8125 C 14.472656 -27.5 14.6875 -27.070312 14.6875 -26.53125 Z M 14.6875 -26.53125 "/></g></g></g><g fill="#0954b8" fill-opacity="1"><g transform="translate(365.349217, 359.023481)"><g><path d="M 23.90625 -16.765625 C 23.90625 -16.191406 23.878906 -15.375 23.828125 -14.3125 C 23.773438 -13.257812 23.675781 -12.101562 23.53125 -10.84375 C 23.394531 -9.582031 23.195312 -8.289062 22.9375 -6.96875 C 22.675781 -5.65625 22.335938 -4.460938 21.921875 -3.390625 C 21.503906 -2.328125 20.992188 -1.445312 20.390625 -0.75 C 19.796875 -0.0625 19.082031 0.28125 18.25 0.28125 C 17.46875 0.28125 16.75 0.0507812 16.09375 -0.40625 C 15.445312 -0.863281 14.863281 -1.425781 14.34375 -2.09375 C 13.820312 -2.757812 13.363281 -3.46875 12.96875 -4.21875 C 12.582031 -4.976562 12.257812 -5.671875 12 -6.296875 C 11.445312 -7.617188 10.894531 -8.925781 10.34375 -10.21875 C 9.800781 -11.507812 9.285156 -12.816406 8.796875 -14.140625 L 8.796875 -13.046875 C 8.796875 -11.929688 8.785156 -10.816406 8.765625 -9.703125 C 8.753906 -8.597656 8.671875 -7.5 8.515625 -6.40625 C 8.460938 -5.96875 8.40625 -5.453125 8.34375 -4.859375 C 8.28125 -4.273438 8.179688 -3.695312 8.046875 -3.125 C 7.921875 -2.550781 7.734375 -2.015625 7.484375 -1.515625 C 7.234375 -1.023438 6.898438 -0.664062 6.484375 -0.4375 C 6.253906 -0.300781 6.039062 -0.21875 5.84375 -0.1875 C 5.644531 -0.164062 5.429688 -0.128906 5.203125 -0.078125 L 5.078125 -0.078125 C 4.484375 -0.078125 3.976562 -0.28125 3.5625 -0.6875 C 3.144531 -1.09375 2.789062 -1.613281 2.5 -2.25 C 2.21875 -2.882812 1.988281 -3.597656 1.8125 -4.390625 C 1.644531 -5.191406 1.515625 -5.972656 1.421875 -6.734375 C 1.335938 -7.503906 1.28125 -8.210938 1.25 -8.859375 C 1.226562 -9.515625 1.21875 -10.039062 1.21875 -10.4375 C 1.21875 -11.03125 1.242188 -11.90625 1.296875 -13.0625 C 1.347656 -14.226562 1.457031 -15.515625 1.625 -16.921875 C 1.789062 -18.328125 2.007812 -19.769531 2.28125 -21.25 C 2.5625 -22.738281 2.921875 -24.085938 3.359375 -25.296875 C 3.804688 -26.503906 4.34375 -27.492188 4.96875 -28.265625 C 5.59375 -29.035156 6.320312 -29.421875 7.15625 -29.421875 C 7.957031 -29.421875 8.675781 -29.109375 9.3125 -28.484375 C 9.957031 -27.859375 10.523438 -27.113281 11.015625 -26.25 C 11.515625 -25.394531 11.929688 -24.5 12.265625 -23.5625 C 12.609375 -22.625 12.894531 -21.84375 13.125 -21.21875 C 13.570312 -19.988281 14.003906 -18.769531 14.421875 -17.5625 C 14.835938 -16.351562 15.238281 -15.125 15.625 -13.875 C 15.65625 -13.820312 15.707031 -13.675781 15.78125 -13.4375 C 15.863281 -13.207031 15.957031 -12.945312 16.0625 -12.65625 C 16.164062 -12.34375 16.296875 -11.992188 16.453125 -11.609375 C 16.453125 -11.941406 16.441406 -12.179688 16.421875 -12.328125 C 16.410156 -12.472656 16.40625 -12.601562 16.40625 -12.71875 C 16.40625 -12.832031 16.40625 -12.976562 16.40625 -13.15625 C 16.40625 -13.34375 16.40625 -13.632812 16.40625 -14.03125 C 16.382812 -14.882812 16.363281 -15.738281 16.34375 -16.59375 C 16.332031 -17.457031 16.328125 -18.304688 16.328125 -19.140625 C 16.328125 -19.503906 16.332031 -20.007812 16.34375 -20.65625 C 16.363281 -21.3125 16.40625 -22.007812 16.46875 -22.75 C 16.53125 -23.5 16.625 -24.25 16.75 -25 C 16.882812 -25.757812 17.078125 -26.441406 17.328125 -27.046875 C 17.578125 -27.660156 17.890625 -28.160156 18.265625 -28.546875 C 18.640625 -28.941406 19.101562 -29.140625 19.65625 -29.140625 C 20.300781 -29.140625 20.859375 -28.890625 21.328125 -28.390625 C 21.796875 -27.898438 22.1875 -27.269531 22.5 -26.5 C 22.8125 -25.738281 23.054688 -24.878906 23.234375 -23.921875 C 23.421875 -22.972656 23.566406 -22.039062 23.671875 -21.125 C 23.773438 -20.21875 23.835938 -19.375 23.859375 -18.59375 C 23.890625 -17.8125 23.90625 -17.203125 23.90625 -16.765625 Z M 23.90625 -16.765625 "/></g></g></g><g fill="#0954b8" fill-opacity="1"><g transform="translate(390.659244, 359.023481)"><g><path d="M 18.671875 -9.375 C 18.441406 -8.207031 18.070312 -6.988281 17.5625 -5.71875 C 17.050781 -4.457031 16.398438 -3.304688 15.609375 -2.265625 C 14.816406 -1.222656 13.875 -0.367188 12.78125 0.296875 C 11.6875 0.960938 10.4375 1.296875 9.03125 1.296875 C 7.988281 1.296875 7.050781 1.085938 6.21875 0.671875 C 5.382812 0.253906 4.628906 -0.304688 3.953125 -1.015625 C 3.273438 -1.722656 2.6875 -2.53125 2.1875 -3.4375 C 1.695312 -4.351562 1.285156 -5.296875 0.953125 -6.265625 C 0.628906 -7.242188 0.390625 -8.210938 0.234375 -9.171875 C 0.078125 -10.140625 0 -11.039062 0 -11.875 C 0 -13.050781 0.109375 -14.304688 0.328125 -15.640625 C 0.554688 -16.984375 0.890625 -18.3125 1.328125 -19.625 C 1.773438 -20.945312 2.335938 -22.210938 3.015625 -23.421875 C 3.691406 -24.628906 4.488281 -25.695312 5.40625 -26.625 C 6.332031 -27.550781 7.375 -28.289062 8.53125 -28.84375 C 9.695312 -29.40625 10.992188 -29.6875 12.421875 -29.6875 C 13.335938 -29.6875 14.1875 -29.507812 14.96875 -29.15625 C 15.75 -28.8125 16.425781 -28.34375 17 -27.75 C 17.570312 -27.164062 18.019531 -26.46875 18.34375 -25.65625 C 18.664062 -24.851562 18.828125 -24.007812 18.828125 -23.125 L 18.828125 -22.78125 C 18.828125 -22.3125 18.804688 -21.726562 18.765625 -21.03125 C 18.734375 -20.34375 18.613281 -19.6875 18.40625 -19.0625 C 18.195312 -18.4375 17.882812 -17.894531 17.46875 -17.4375 C 17.050781 -16.988281 16.460938 -16.765625 15.703125 -16.765625 C 14.796875 -16.765625 14.109375 -16.972656 13.640625 -17.390625 C 13.171875 -17.804688 12.9375 -18.492188 12.9375 -19.453125 C 12.9375 -19.816406 12.945312 -20.179688 12.96875 -20.546875 C 13 -20.910156 13.015625 -21.273438 13.015625 -21.640625 C 13.015625 -22.191406 12.921875 -22.613281 12.734375 -22.90625 C 12.554688 -23.207031 12.179688 -23.359375 11.609375 -23.359375 C 10.953125 -23.359375 10.363281 -23.148438 9.84375 -22.734375 C 9.320312 -22.316406 8.863281 -21.769531 8.46875 -21.09375 C 8.082031 -20.414062 7.742188 -19.644531 7.453125 -18.78125 C 7.171875 -17.925781 6.9375 -17.0625 6.75 -16.1875 C 6.570312 -15.320312 6.441406 -14.484375 6.359375 -13.671875 C 6.285156 -12.867188 6.25 -12.179688 6.25 -11.609375 C 6.25 -11.140625 6.273438 -10.597656 6.328125 -9.984375 C 6.378906 -9.367188 6.488281 -8.78125 6.65625 -8.21875 C 6.832031 -7.664062 7.085938 -7.191406 7.421875 -6.796875 C 7.765625 -6.410156 8.207031 -6.21875 8.75 -6.21875 C 9.6875 -6.21875 10.441406 -6.507812 11.015625 -7.09375 C 11.585938 -7.675781 11.976562 -8.425781 12.1875 -9.34375 C 11.820312 -9.394531 11.460938 -9.476562 11.109375 -9.59375 C 10.765625 -9.707031 10.441406 -9.875 10.140625 -10.09375 C 9.835938 -10.320312 9.59375 -10.597656 9.40625 -10.921875 C 9.226562 -11.242188 9.140625 -11.628906 9.140625 -12.078125 C 9.140625 -12.878906 9.410156 -13.507812 9.953125 -13.96875 C 10.503906 -14.425781 11.148438 -14.769531 11.890625 -15 C 12.640625 -15.238281 13.40625 -15.390625 14.1875 -15.453125 C 14.96875 -15.515625 15.59375 -15.546875 16.0625 -15.546875 C 16.394531 -15.546875 16.882812 -15.519531 17.53125 -15.46875 C 18.1875 -15.414062 18.832031 -15.304688 19.46875 -15.140625 C 20.113281 -14.972656 20.671875 -14.734375 21.140625 -14.421875 C 21.609375 -14.109375 21.84375 -13.703125 21.84375 -13.203125 C 21.84375 -12.210938 21.570312 -11.359375 21.03125 -10.640625 C 20.5 -9.929688 19.710938 -9.507812 18.671875 -9.375 Z M 18.671875 -9.375 "/></g></g></g><g fill="#0954b8" fill-opacity="1"><g transform="translate(411.477522, 359.023481)"><g/></g></g><g fill="#0954b8" fill-opacity="1"><g transform="translate(420.890664, 359.023481)"><g><path d="M 14.6875 -26.53125 C 14.6875 -26.03125 14.578125 -25.582031 14.359375 -25.1875 C 14.140625 -24.800781 13.847656 -24.472656 13.484375 -24.203125 C 13.117188 -23.929688 12.710938 -23.703125 12.265625 -23.515625 C 11.828125 -23.335938 11.398438 -23.207031 10.984375 -23.125 C 10.929688 -20.1875 10.816406 -17.347656 10.640625 -14.609375 C 10.472656 -11.878906 10.207031 -9.054688 9.84375 -6.140625 L 10.078125 -6.140625 C 10.492188 -6.140625 10.90625 -6.09375 11.3125 -6 C 11.71875 -5.90625 12.082031 -5.75 12.40625 -5.53125 C 12.726562 -5.3125 12.988281 -5.035156 13.1875 -4.703125 C 13.382812 -4.378906 13.484375 -3.984375 13.484375 -3.515625 C 13.484375 -2.921875 13.289062 -2.398438 12.90625 -1.953125 C 12.53125 -1.515625 12.035156 -1.140625 11.421875 -0.828125 C 10.816406 -0.515625 10.132812 -0.25 9.375 -0.03125 C 8.625 0.175781 7.867188 0.335938 7.109375 0.453125 C 6.359375 0.566406 5.644531 0.648438 4.96875 0.703125 C 4.289062 0.753906 3.742188 0.78125 3.328125 0.78125 C 3.015625 0.78125 2.628906 0.765625 2.171875 0.734375 C 1.710938 0.710938 1.28125 0.632812 0.875 0.5 C 0.476562 0.375 0.132812 0.179688 -0.15625 -0.078125 C -0.445312 -0.335938 -0.59375 -0.691406 -0.59375 -1.140625 C -0.59375 -1.679688 -0.476562 -2.164062 -0.25 -2.59375 C -0.03125 -3.03125 0.257812 -3.414062 0.625 -3.75 C 0.988281 -4.09375 1.398438 -4.367188 1.859375 -4.578125 C 2.316406 -4.785156 2.78125 -4.941406 3.25 -5.046875 C 3.425781 -6.472656 3.59375 -7.894531 3.75 -9.3125 C 3.90625 -10.738281 4.007812 -12.179688 4.0625 -13.640625 C 4.113281 -15.117188 4.164062 -16.582031 4.21875 -18.03125 C 4.269531 -19.476562 4.320312 -20.929688 4.375 -22.390625 C 4.195312 -22.359375 4.03125 -22.335938 3.875 -22.328125 C 3.71875 -22.316406 3.570312 -22.3125 3.4375 -22.3125 C 3.070312 -22.3125 2.679688 -22.347656 2.265625 -22.421875 C 1.847656 -22.503906 1.457031 -22.640625 1.09375 -22.828125 C 0.726562 -23.023438 0.421875 -23.265625 0.171875 -23.546875 C -0.078125 -23.835938 -0.203125 -24.207031 -0.203125 -24.65625 C -0.203125 -25.539062 0.164062 -26.269531 0.90625 -26.84375 C 1.65625 -27.414062 2.546875 -27.859375 3.578125 -28.171875 C 4.609375 -28.484375 5.65625 -28.695312 6.71875 -28.8125 C 7.789062 -28.925781 8.648438 -28.984375 9.296875 -28.984375 C 9.660156 -28.984375 10.140625 -28.957031 10.734375 -28.90625 C 11.335938 -28.851562 11.929688 -28.734375 12.515625 -28.546875 C 13.109375 -28.367188 13.617188 -28.125 14.046875 -27.8125 C 14.472656 -27.5 14.6875 -27.070312 14.6875 -26.53125 Z M 14.6875 -26.53125 "/></g></g></g><g fill="#0954b8" fill-opacity="1"><g transform="translate(434.95179, 359.023481)"><g><path d="M 23.90625 -16.765625 C 23.90625 -16.191406 23.878906 -15.375 23.828125 -14.3125 C 23.773438 -13.257812 23.675781 -12.101562 23.53125 -10.84375 C 23.394531 -9.582031 23.195312 -8.289062 22.9375 -6.96875 C 22.675781 -5.65625 22.335938 -4.460938 21.921875 -3.390625 C 21.503906 -2.328125 20.992188 -1.445312 20.390625 -0.75 C 19.796875 -0.0625 19.082031 0.28125 18.25 0.28125 C 17.46875 0.28125 16.75 0.0507812 16.09375 -0.40625 C 15.445312 -0.863281 14.863281 -1.425781 14.34375 -2.09375 C 13.820312 -2.757812 13.363281 -3.46875 12.96875 -4.21875 C 12.582031 -4.976562 12.257812 -5.671875 12 -6.296875 C 11.445312 -7.617188 10.894531 -8.925781 10.34375 -10.21875 C 9.800781 -11.507812 9.285156 -12.816406 8.796875 -14.140625 L 8.796875 -13.046875 C 8.796875 -11.929688 8.785156 -10.816406 8.765625 -9.703125 C 8.753906 -8.597656 8.671875 -7.5 8.515625 -6.40625 C 8.460938 -5.96875 8.40625 -5.453125 8.34375 -4.859375 C 8.28125 -4.273438 8.179688 -3.695312 8.046875 -3.125 C 7.921875 -2.550781 7.734375 -2.015625 7.484375 -1.515625 C 7.234375 -1.023438 6.898438 -0.664062 6.484375 -0.4375 C 6.253906 -0.300781 6.039062 -0.21875 5.84375 -0.1875 C 5.644531 -0.164062 5.429688 -0.128906 5.203125 -0.078125 L 5.078125 -0.078125 C 4.484375 -0.078125 3.976562 -0.28125 3.5625 -0.6875 C 3.144531 -1.09375 2.789062 -1.613281 2.5 -2.25 C 2.21875 -2.882812 1.988281 -3.597656 1.8125 -4.390625 C 1.644531 -5.191406 1.515625 -5.972656 1.421875 -6.734375 C 1.335938 -7.503906 1.28125 -8.210938 1.25 -8.859375 C 1.226562 -9.515625 1.21875 -10.039062 1.21875 -10.4375 C 1.21875 -11.03125 1.242188 -11.90625 1.296875 -13.0625 C 1.347656 -14.226562 1.457031 -15.515625 1.625 -16.921875 C 1.789062 -18.328125 2.007812 -19.769531 2.28125 -21.25 C 2.5625 -22.738281 2.921875 -24.085938 3.359375 -25.296875 C 3.804688 -26.503906 4.34375 -27.492188 4.96875 -28.265625 C 5.59375 -29.035156 6.320312 -29.421875 7.15625 -29.421875 C 7.957031 -29.421875 8.675781 -29.109375 9.3125 -28.484375 C 9.957031 -27.859375 10.523438 -27.113281 11.015625 -26.25 C 11.515625 -25.394531 11.929688 -24.5 12.265625 -23.5625 C 12.609375 -22.625 12.894531 -21.84375 13.125 -21.21875 C 13.570312 -19.988281 14.003906 -18.769531 14.421875 -17.5625 C 14.835938 -16.351562 15.238281 -15.125 15.625 -13.875 C 15.65625 -13.820312 15.707031 -13.675781 15.78125 -13.4375 C 15.863281 -13.207031 15.957031 -12.945312 16.0625 -12.65625 C 16.164062 -12.34375 16.296875 -11.992188 16.453125 -11.609375 C 16.453125 -11.941406 16.441406 -12.179688 16.421875 -12.328125 C 16.410156 -12.472656 16.40625 -12.601562 16.40625 -12.71875 C 16.40625 -12.832031 16.40625 -12.976562 16.40625 -13.15625 C 16.40625 -13.34375 16.40625 -13.632812 16.40625 -14.03125 C 16.382812 -14.882812 16.363281 -15.738281 16.34375 -16.59375 C 16.332031 -17.457031 16.328125 -18.304688 16.328125 -19.140625 C 16.328125 -19.503906 16.332031 -20.007812 16.34375 -20.65625 C 16.363281 -21.3125 16.40625 -22.007812 16.46875 -22.75 C 16.53125 -23.5 16.625 -24.25 16.75 -25 C 16.882812 -25.757812 17.078125 -26.441406 17.328125 -27.046875 C 17.578125 -27.660156 17.890625 -28.160156 18.265625 -28.546875 C 18.640625 -28.941406 19.101562 -29.140625 19.65625 -29.140625 C 20.300781 -29.140625 20.859375 -28.890625 21.328125 -28.390625 C 21.796875 -27.898438 22.1875 -27.269531 22.5 -26.5 C 22.8125 -25.738281 23.054688 -24.878906 23.234375 -23.921875 C 23.421875 -22.972656 23.566406 -22.039062 23.671875 -21.125 C 23.773438 -20.21875 23.835938 -19.375 23.859375 -18.59375 C 23.890625 -17.8125 23.90625 -17.203125 23.90625 -16.765625 Z M 23.90625 -16.765625 "/></g></g></g><g fill="#0954b8" fill-opacity="1"><g transform="translate(460.261817, 359.023481)"><g/></g></g><g fill="#0954b8" fill-opacity="1"><g transform="translate(469.674959, 359.023481)"><g><path d="M 13.953125 -27.421875 C 13.953125 -26.828125 13.757812 -26.304688 13.375 -25.859375 C 13 -25.421875 12.550781 -25.054688 12.03125 -24.765625 C 11.5625 -24.484375 11.078125 -24.175781 10.578125 -23.84375 C 10.085938 -23.519531 9.632812 -23.15625 9.21875 -22.75 C 8.800781 -22.351562 8.460938 -21.90625 8.203125 -21.40625 C 7.941406 -20.914062 7.8125 -20.359375 7.8125 -19.734375 C 7.8125 -19.179688 7.941406 -18.679688 8.203125 -18.234375 C 8.460938 -17.796875 8.78125 -17.363281 9.15625 -16.9375 C 9.539062 -16.507812 9.957031 -16.066406 10.40625 -15.609375 C 10.863281 -15.148438 11.28125 -14.640625 11.65625 -14.078125 C 12.039062 -13.523438 12.363281 -12.894531 12.625 -12.1875 C 12.882812 -11.488281 13.015625 -10.671875 13.015625 -9.734375 C 13.015625 -9.078125 12.875 -8.335938 12.59375 -7.515625 C 12.320312 -6.703125 11.953125 -5.878906 11.484375 -5.046875 C 11.015625 -4.210938 10.460938 -3.40625 9.828125 -2.625 C 9.191406 -1.84375 8.515625 -1.144531 7.796875 -0.53125 C 7.078125 0.0820312 6.328125 0.578125 5.546875 0.953125 C 4.765625 1.335938 4.007812 1.53125 3.28125 1.53125 C 2.476562 1.53125 1.765625 1.304688 1.140625 0.859375 C 0.515625 0.421875 0.203125 -0.242188 0.203125 -1.140625 C 0.203125 -1.734375 0.34375 -2.285156 0.625 -2.796875 C 0.914062 -3.304688 1.269531 -3.796875 1.6875 -4.265625 C 2.101562 -4.734375 2.5625 -5.1875 3.0625 -5.625 C 3.570312 -6.070312 4.035156 -6.515625 4.453125 -6.953125 C 4.867188 -7.398438 5.21875 -7.863281 5.5 -8.34375 C 5.789062 -8.820312 5.9375 -9.335938 5.9375 -9.890625 C 5.9375 -10.640625 5.671875 -11.410156 5.140625 -12.203125 C 4.609375 -13.003906 4.015625 -13.828125 3.359375 -14.671875 C 2.710938 -15.515625 2.117188 -16.378906 1.578125 -17.265625 C 1.046875 -18.148438 0.78125 -19.050781 0.78125 -19.96875 C 0.78125 -21.082031 1.078125 -22.257812 1.671875 -23.5 C 2.273438 -24.738281 3.046875 -25.867188 3.984375 -26.890625 C 4.921875 -27.921875 5.972656 -28.773438 7.140625 -29.453125 C 8.316406 -30.128906 9.476562 -30.46875 10.625 -30.46875 C 11.539062 -30.46875 12.320312 -30.191406 12.96875 -29.640625 C 13.625 -29.097656 13.953125 -28.359375 13.953125 -27.421875 Z M 13.953125 -27.421875 "/></g></g></g><g fill="#0954b8" fill-opacity="1"><g transform="translate(483.814191, 359.023481)"><g><path d="M 18.4375 -19.890625 C 18.4375 -19.390625 18.378906 -18.863281 18.265625 -18.3125 C 18.148438 -17.769531 17.960938 -17.265625 17.703125 -16.796875 C 17.441406 -16.328125 17.101562 -15.9375 16.6875 -15.625 C 16.269531 -15.3125 15.757812 -15.15625 15.15625 -15.15625 C 14.25 -15.15625 13.570312 -15.316406 13.125 -15.640625 C 12.6875 -15.972656 12.375 -16.382812 12.1875 -16.875 C 12.007812 -17.375 11.910156 -17.898438 11.890625 -18.453125 C 11.878906 -19.015625 11.859375 -19.539062 11.828125 -20.03125 C 11.804688 -20.53125 11.722656 -20.941406 11.578125 -21.265625 C 11.441406 -21.597656 11.140625 -21.765625 10.671875 -21.765625 C 10.148438 -21.765625 9.691406 -21.570312 9.296875 -21.1875 C 8.910156 -20.8125 8.570312 -20.320312 8.28125 -19.71875 C 8 -19.125 7.757812 -18.445312 7.5625 -17.6875 C 7.363281 -16.9375 7.207031 -16.191406 7.09375 -15.453125 C 6.976562 -14.710938 6.894531 -14.007812 6.84375 -13.34375 C 6.789062 -12.675781 6.765625 -12.132812 6.765625 -11.71875 C 6.765625 -11.175781 6.78125 -10.523438 6.8125 -9.765625 C 6.851562 -9.015625 6.976562 -8.289062 7.1875 -7.59375 C 7.394531 -6.90625 7.707031 -6.320312 8.125 -5.84375 C 8.539062 -5.363281 9.140625 -5.125 9.921875 -5.125 C 10.441406 -5.125 10.945312 -5.1875 11.4375 -5.3125 C 11.9375 -5.445312 12.429688 -5.597656 12.921875 -5.765625 C 13.421875 -5.929688 13.925781 -6.078125 14.4375 -6.203125 C 14.945312 -6.335938 15.460938 -6.40625 15.984375 -6.40625 C 16.578125 -6.40625 17.066406 -6.164062 17.453125 -5.6875 C 17.847656 -5.207031 18.046875 -4.664062 18.046875 -4.0625 C 18.046875 -3.226562 17.785156 -2.453125 17.265625 -1.734375 C 16.742188 -1.023438 16.097656 -0.394531 15.328125 0.15625 C 14.566406 0.707031 13.734375 1.140625 12.828125 1.453125 C 11.929688 1.765625 11.117188 1.921875 10.390625 1.921875 C 8.515625 1.921875 6.925781 1.492188 5.625 0.640625 C 4.320312 -0.203125 3.265625 -1.296875 2.453125 -2.640625 C 1.648438 -3.984375 1.070312 -5.476562 0.71875 -7.125 C 0.375 -8.78125 0.203125 -10.429688 0.203125 -12.078125 C 0.203125 -13.171875 0.304688 -14.367188 0.515625 -15.671875 C 0.722656 -16.972656 1.035156 -18.28125 1.453125 -19.59375 C 1.867188 -20.90625 2.394531 -22.171875 3.03125 -23.390625 C 3.664062 -24.617188 4.410156 -25.703125 5.265625 -26.640625 C 6.128906 -27.578125 7.101562 -28.332031 8.1875 -28.90625 C 9.269531 -29.476562 10.460938 -29.765625 11.765625 -29.765625 C 13.035156 -29.765625 14.097656 -29.445312 14.953125 -28.8125 C 15.816406 -28.175781 16.507812 -27.367188 17.03125 -26.390625 C 17.550781 -25.410156 17.914062 -24.34375 18.125 -23.1875 C 18.332031 -22.03125 18.4375 -20.929688 18.4375 -19.890625 Z M 18.4375 -19.890625 "/></g></g></g><g fill="#0954b8" fill-opacity="1"><g transform="translate(502.640499, 359.023481)"><g><path d="M 19.921875 -22.34375 C 19.921875 -20.1875 19.867188 -18.019531 19.765625 -15.84375 C 19.660156 -13.664062 19.53125 -11.5 19.375 -9.34375 C 19.351562 -8.945312 19.328125 -8.414062 19.296875 -7.75 C 19.273438 -7.09375 19.222656 -6.378906 19.140625 -5.609375 C 19.066406 -4.835938 18.960938 -4.0625 18.828125 -3.28125 C 18.703125 -2.5 18.5 -1.789062 18.21875 -1.15625 C 17.945312 -0.519531 17.597656 0 17.171875 0.40625 C 16.742188 0.8125 16.21875 1.015625 15.59375 1.015625 C 15.039062 1.015625 14.550781 0.894531 14.125 0.65625 C 13.695312 0.425781 13.335938 0.125 13.046875 -0.25 C 12.765625 -0.632812 12.546875 -1.066406 12.390625 -1.546875 C 12.234375 -2.023438 12.15625 -2.523438 12.15625 -3.046875 C 12.15625 -3.910156 12.179688 -4.773438 12.234375 -5.640625 C 12.285156 -6.515625 12.363281 -7.382812 12.46875 -8.25 L 8.59375 -7.859375 C 8.519531 -7.179688 8.4375 -6.363281 8.34375 -5.40625 C 8.25 -4.457031 8.066406 -3.546875 7.796875 -2.671875 C 7.523438 -1.804688 7.113281 -1.054688 6.5625 -0.421875 C 6.019531 0.203125 5.265625 0.515625 4.296875 0.515625 C 3.703125 0.515625 3.207031 0.375 2.8125 0.09375 C 2.425781 -0.175781 2.113281 -0.523438 1.875 -0.953125 C 1.644531 -1.390625 1.476562 -1.867188 1.375 -2.390625 C 1.269531 -2.910156 1.21875 -3.40625 1.21875 -3.875 C 1.21875 -5.4375 1.28125 -6.988281 1.40625 -8.53125 C 1.539062 -10.082031 1.632812 -11.640625 1.6875 -13.203125 C 1.738281 -14.847656 1.753906 -16.492188 1.734375 -18.140625 C 1.722656 -19.796875 1.742188 -21.457031 1.796875 -23.125 C 1.828125 -23.675781 1.847656 -24.316406 1.859375 -25.046875 C 1.867188 -25.773438 1.957031 -26.457031 2.125 -27.09375 C 2.300781 -27.726562 2.585938 -28.265625 2.984375 -28.703125 C 3.390625 -29.148438 4 -29.375 4.8125 -29.375 C 5.925781 -29.375 6.769531 -29.082031 7.34375 -28.5 C 7.914062 -27.914062 8.316406 -27.1875 8.546875 -26.3125 C 8.785156 -25.4375 8.90625 -24.507812 8.90625 -23.53125 C 8.90625 -22.5625 8.90625 -21.6875 8.90625 -20.90625 C 8.90625 -19.863281 8.878906 -18.835938 8.828125 -17.828125 C 8.773438 -16.828125 8.722656 -15.820312 8.671875 -14.8125 L 12.859375 -15.4375 C 12.878906 -16.707031 12.898438 -17.96875 12.921875 -19.21875 C 12.953125 -20.46875 13.007812 -21.71875 13.09375 -22.96875 C 13.113281 -23.570312 13.132812 -24.210938 13.15625 -24.890625 C 13.1875 -25.566406 13.289062 -26.191406 13.46875 -26.765625 C 13.65625 -27.335938 13.960938 -27.8125 14.390625 -28.1875 C 14.828125 -28.5625 15.472656 -28.75 16.328125 -28.75 C 17.054688 -28.75 17.648438 -28.539062 18.109375 -28.125 C 18.566406 -27.707031 18.929688 -27.195312 19.203125 -26.59375 C 19.472656 -26 19.660156 -25.363281 19.765625 -24.6875 C 19.867188 -24.007812 19.921875 -23.398438 19.921875 -22.859375 Z M 19.921875 -22.34375 "/></g></g></g><g fill="#0954b8" fill-opacity="1"><g transform="translate(523.966517, 359.023481)"><g><path d="M 10.125 1.296875 C 8.53125 1.296875 7.144531 0.894531 5.96875 0.09375 C 4.800781 -0.695312 3.832031 -1.765625 3.0625 -3.109375 C 2.300781 -4.453125 1.726562 -6.007812 1.34375 -7.78125 C 0.96875 -9.550781 0.78125 -11.410156 0.78125 -13.359375 C 0.78125 -15.179688 0.984375 -17.03125 1.390625 -18.90625 C 1.796875 -20.78125 2.414062 -22.472656 3.25 -23.984375 C 4.082031 -25.492188 5.132812 -26.726562 6.40625 -27.6875 C 7.6875 -28.65625 9.210938 -29.140625 10.984375 -29.140625 C 12.703125 -29.140625 14.140625 -28.675781 15.296875 -27.75 C 16.453125 -26.832031 17.375 -25.632812 18.0625 -24.15625 C 18.757812 -22.6875 19.253906 -21.039062 19.546875 -19.21875 C 19.847656 -17.394531 20 -15.570312 20 -13.75 C 20 -11.71875 19.796875 -9.796875 19.390625 -7.984375 C 18.992188 -6.179688 18.382812 -4.585938 17.5625 -3.203125 C 16.738281 -1.828125 15.707031 -0.734375 14.46875 0.078125 C 13.238281 0.890625 11.789062 1.296875 10.125 1.296875 Z M 10.59375 -20.515625 C 10.09375 -20.515625 9.664062 -20.316406 9.3125 -19.921875 C 8.96875 -19.535156 8.675781 -19.019531 8.4375 -18.375 C 8.207031 -17.738281 8.039062 -17.023438 7.9375 -16.234375 C 7.832031 -15.441406 7.78125 -14.640625 7.78125 -13.828125 C 7.78125 -12.921875 7.835938 -12.007812 7.953125 -11.09375 C 8.066406 -10.1875 8.238281 -9.367188 8.46875 -8.640625 C 8.707031 -7.910156 9.003906 -7.320312 9.359375 -6.875 C 9.710938 -6.4375 10.132812 -6.21875 10.625 -6.21875 C 11.195312 -6.21875 11.648438 -6.503906 11.984375 -7.078125 C 12.328125 -7.648438 12.597656 -8.335938 12.796875 -9.140625 C 12.992188 -9.953125 13.125 -10.785156 13.1875 -11.640625 C 13.25 -12.503906 13.28125 -13.222656 13.28125 -13.796875 C 13.28125 -14.492188 13.234375 -15.234375 13.140625 -16.015625 C 13.054688 -16.796875 12.910156 -17.519531 12.703125 -18.1875 C 12.492188 -18.851562 12.21875 -19.40625 11.875 -19.84375 C 11.539062 -20.289062 11.113281 -20.515625 10.59375 -20.515625 Z M 10.59375 -20.515625 "/></g></g></g><g fill="#0954b8" fill-opacity="1"><g transform="translate(544.980111, 359.023481)"><g><path d="M 10.125 1.296875 C 8.53125 1.296875 7.144531 0.894531 5.96875 0.09375 C 4.800781 -0.695312 3.832031 -1.765625 3.0625 -3.109375 C 2.300781 -4.453125 1.726562 -6.007812 1.34375 -7.78125 C 0.96875 -9.550781 0.78125 -11.410156 0.78125 -13.359375 C 0.78125 -15.179688 0.984375 -17.03125 1.390625 -18.90625 C 1.796875 -20.78125 2.414062 -22.472656 3.25 -23.984375 C 4.082031 -25.492188 5.132812 -26.726562 6.40625 -27.6875 C 7.6875 -28.65625 9.210938 -29.140625 10.984375 -29.140625 C 12.703125 -29.140625 14.140625 -28.675781 15.296875 -27.75 C 16.453125 -26.832031 17.375 -25.632812 18.0625 -24.15625 C 18.757812 -22.6875 19.253906 -21.039062 19.546875 -19.21875 C 19.847656 -17.394531 20 -15.570312 20 -13.75 C 20 -11.71875 19.796875 -9.796875 19.390625 -7.984375 C 18.992188 -6.179688 18.382812 -4.585938 17.5625 -3.203125 C 16.738281 -1.828125 15.707031 -0.734375 14.46875 0.078125 C 13.238281 0.890625 11.789062 1.296875 10.125 1.296875 Z M 10.59375 -20.515625 C 10.09375 -20.515625 9.664062 -20.316406 9.3125 -19.921875 C 8.96875 -19.535156 8.675781 -19.019531 8.4375 -18.375 C 8.207031 -17.738281 8.039062 -17.023438 7.9375 -16.234375 C 7.832031 -15.441406 7.78125 -14.640625 7.78125 -13.828125 C 7.78125 -12.921875 7.835938 -12.007812 7.953125 -11.09375 C 8.066406 -10.1875 8.238281 -9.367188 8.46875 -8.640625 C 8.707031 -7.910156 9.003906 -7.320312 9.359375 -6.875 C 9.710938 -6.4375 10.132812 -6.21875 10.625 -6.21875 C 11.195312 -6.21875 11.648438 -6.503906 11.984375 -7.078125 C 12.328125 -7.648438 12.597656 -8.335938 12.796875 -9.140625 C 12.992188 -9.953125 13.125 -10.785156 13.1875 -11.640625 C 13.25 -12.503906 13.28125 -13.222656 13.28125 -13.796875 C 13.28125 -14.492188 13.234375 -15.234375 13.140625 -16.015625 C 13.054688 -16.796875 12.910156 -17.519531 12.703125 -18.1875 C 12.492188 -18.851562 12.21875 -19.40625 11.875 -19.84375 C 11.539062 -20.289062 11.113281 -20.515625 10.59375 -20.515625 Z M 10.59375 -20.515625 "/></g></g></g><g fill="#0954b8" fill-opacity="1"><g transform="translate(565.993659, 359.023481)"><g><path d="M 19.8125 -5.390625 C 19.8125 -4.742188 19.539062 -4.132812 19 -3.5625 C 18.46875 -2.988281 17.78125 -2.46875 16.9375 -2 C 16.09375 -1.53125 15.148438 -1.117188 14.109375 -0.765625 C 13.066406 -0.410156 12.035156 -0.109375 11.015625 0.140625 C 10.003906 0.390625 9.046875 0.578125 8.140625 0.703125 C 7.242188 0.835938 6.535156 0.90625 6.015625 0.90625 C 5.523438 0.90625 5 0.859375 4.4375 0.765625 C 3.875 0.671875 3.410156 0.46875 3.046875 0.15625 C 2.835938 0 2.65625 -0.347656 2.5 -0.890625 C 2.34375 -1.441406 2.191406 -2.09375 2.046875 -2.84375 C 1.910156 -3.601562 1.789062 -4.421875 1.6875 -5.296875 C 1.582031 -6.171875 1.492188 -7.023438 1.421875 -7.859375 C 1.359375 -8.691406 1.304688 -9.457031 1.265625 -10.15625 C 1.234375 -10.863281 1.21875 -11.410156 1.21875 -11.796875 C 1.21875 -12.453125 1.234375 -13.238281 1.265625 -14.15625 C 1.304688 -15.082031 1.363281 -16.070312 1.4375 -17.125 C 1.519531 -18.1875 1.625 -19.265625 1.75 -20.359375 C 1.882812 -21.453125 2.035156 -22.484375 2.203125 -23.453125 C 2.378906 -24.429688 2.585938 -25.3125 2.828125 -26.09375 C 3.078125 -26.875 3.347656 -27.488281 3.640625 -27.9375 C 4.128906 -28.632812 4.753906 -28.984375 5.515625 -28.984375 C 6.035156 -28.984375 6.476562 -28.804688 6.84375 -28.453125 C 7.207031 -28.109375 7.5 -27.65625 7.71875 -27.09375 C 7.9375 -26.53125 8.101562 -25.90625 8.21875 -25.21875 C 8.34375 -24.53125 8.429688 -23.847656 8.484375 -23.171875 C 8.535156 -22.492188 8.5625 -21.867188 8.5625 -21.296875 C 8.5625 -20.722656 8.5625 -20.265625 8.5625 -19.921875 C 8.5625 -17.890625 8.515625 -15.878906 8.421875 -13.890625 C 8.328125 -11.898438 8.28125 -9.890625 8.28125 -7.859375 L 8.28125 -6.328125 C 9.457031 -6.691406 10.734375 -7.035156 12.109375 -7.359375 C 13.492188 -7.691406 14.8125 -7.859375 16.0625 -7.859375 C 16.5 -7.859375 16.945312 -7.832031 17.40625 -7.78125 C 17.863281 -7.726562 18.265625 -7.613281 18.609375 -7.4375 C 18.960938 -7.269531 19.25 -7.023438 19.46875 -6.703125 C 19.695312 -6.378906 19.8125 -5.941406 19.8125 -5.390625 Z M 19.8125 -5.390625 "/></g></g></g><g fill="#0954b8" fill-opacity="1"><g transform="translate(585.601141, 359.023481)"><g><path d="M 13.953125 -27.421875 C 13.953125 -26.828125 13.757812 -26.304688 13.375 -25.859375 C 13 -25.421875 12.550781 -25.054688 12.03125 -24.765625 C 11.5625 -24.484375 11.078125 -24.175781 10.578125 -23.84375 C 10.085938 -23.519531 9.632812 -23.15625 9.21875 -22.75 C 8.800781 -22.351562 8.460938 -21.90625 8.203125 -21.40625 C 7.941406 -20.914062 7.8125 -20.359375 7.8125 -19.734375 C 7.8125 -19.179688 7.941406 -18.679688 8.203125 -18.234375 C 8.460938 -17.796875 8.78125 -17.363281 9.15625 -16.9375 C 9.539062 -16.507812 9.957031 -16.066406 10.40625 -15.609375 C 10.863281 -15.148438 11.28125 -14.640625 11.65625 -14.078125 C 12.039062 -13.523438 12.363281 -12.894531 12.625 -12.1875 C 12.882812 -11.488281 13.015625 -10.671875 13.015625 -9.734375 C 13.015625 -9.078125 12.875 -8.335938 12.59375 -7.515625 C 12.320312 -6.703125 11.953125 -5.878906 11.484375 -5.046875 C 11.015625 -4.210938 10.460938 -3.40625 9.828125 -2.625 C 9.191406 -1.84375 8.515625 -1.144531 7.796875 -0.53125 C 7.078125 0.0820312 6.328125 0.578125 5.546875 0.953125 C 4.765625 1.335938 4.007812 1.53125 3.28125 1.53125 C 2.476562 1.53125 1.765625 1.304688 1.140625 0.859375 C 0.515625 0.421875 0.203125 -0.242188 0.203125 -1.140625 C 0.203125 -1.734375 0.34375 -2.285156 0.625 -2.796875 C 0.914062 -3.304688 1.269531 -3.796875 1.6875 -4.265625 C 2.101562 -4.734375 2.5625 -5.1875 3.0625 -5.625 C 3.570312 -6.070312 4.035156 -6.515625 4.453125 -6.953125 C 4.867188 -7.398438 5.21875 -7.863281 5.5 -8.34375 C 5.789062 -8.820312 5.9375 -9.335938 5.9375 -9.890625 C 5.9375 -10.640625 5.671875 -11.410156 5.140625 -12.203125 C 4.609375 -13.003906 4.015625 -13.828125 3.359375 -14.671875 C 2.710938 -15.515625 2.117188 -16.378906 1.578125 -17.265625 C 1.046875 -18.148438 0.78125 -19.050781 0.78125 -19.96875 C 0.78125 -21.082031 1.078125 -22.257812 1.671875 -23.5 C 2.273438 -24.738281 3.046875 -25.867188 3.984375 -26.890625 C 4.921875 -27.921875 5.972656 -28.773438 7.140625 -29.453125 C 8.316406 -30.128906 9.476562 -30.46875 10.625 -30.46875 C 11.539062 -30.46875 12.320312 -30.191406 12.96875 -29.640625 C 13.625 -29.097656 13.953125 -28.359375 13.953125 -27.421875 Z M 13.953125 -27.421875 "/></g></g></g></svg>